<svg width="483" height="494" viewBox="0 0 483 494" fill="none" xmlns="http://www.w3.org/2000/svg">
<g filter="url(#filter0_d_95_203)">
<path d="M317.155 141.216C394.244 189.061 456.223 257.259 444.609 312.944C433.198 368.863 348.194 412.269 275.135 413.167C202.076 414.065 141.162 372.689 106.474 303.023C71.9873 233.591 63.4916 136.072 105.562 101.075C147.43 65.8446 239.832 93.5722 317.155 141.216Z" fill="#00ADA2" fill-opacity="0.35" shape-rendering="crispEdges"/>
</g>
<g filter="url(#filter1_d_95_203)">
<path d="M314.363 166.384C363.566 192.806 407.535 244.899 399.582 298.484C391.461 352.213 331.081 407.725 268.028 412.333C204.807 417.087 138.889 371.251 119.875 317.073C101.007 263.064 128.898 200.545 170.051 169.817C211.059 138.921 265.16 139.962 314.363 166.384Z" fill="#00ADA2" fill-opacity="0.35" shape-rendering="crispEdges"/>
</g>
<g filter="url(#filter2_d_95_203)">
<path d="M337.95 281.894C349.977 327.601 342.264 376.535 311.874 398.112C281.485 419.69 228.582 413.917 202.071 389.155C175.392 364.548 175.273 320.796 189.698 277.976C204.116 235.317 233.085 193.427 263.702 193.57C294.15 193.869 325.923 236.187 337.95 281.894Z" fill="#00ADA2" fill-opacity="0.35" shape-rendering="crispEdges"/>
</g>
<g filter="url(#filter3_d_95_203)">
<path d="M284.459 332.209C300.566 342.727 310.007 360.746 306.541 376.853C303.123 393.017 286.846 407.325 269.317 408.804C251.836 410.339 233.103 399.046 225.16 381.403C217.16 363.807 219.949 339.861 232.733 329.344C245.517 318.828 268.345 321.796 284.459 332.209Z" fill="#00ADA2" fill-opacity="0.35" shape-rendering="crispEdges"/>
</g>
<defs>
<filter id="filter0_d_95_203" x="69.2012" y="81.1777" width="384.812" height="344.004" filterUnits="userSpaceOnUse" color-interpolation-filters="sRGB">
<feFlood flood-opacity="0" result="BackgroundImageFix"/>
<feColorMatrix in="SourceAlpha" type="matrix" values="0 0 0 0 0 0 0 0 0 0 0 0 0 0 0 0 0 0 127 0" result="hardAlpha"/>
<feOffset dy="4"/>
<feGaussianBlur stdDeviation="4"/>
<feComposite in2="hardAlpha" operator="out"/>
<feColorMatrix type="matrix" values="0 0 0 0 0.0588235 0 0 0 0 0.145098 0 0 0 0 0.137255 0 0 0 0.1 0"/>
<feBlend mode="normal" in2="BackgroundImageFix" result="effect1_dropShadow_95_203"/>
<feBlend mode="normal" in="SourceGraphic" in2="effect1_dropShadow_95_203" result="shape"/>
</filter>
<filter id="filter1_d_95_203" x="105.855" y="142.597" width="302.662" height="282.076" filterUnits="userSpaceOnUse" color-interpolation-filters="sRGB">
<feFlood flood-opacity="0" result="BackgroundImageFix"/>
<feColorMatrix in="SourceAlpha" type="matrix" values="0 0 0 0 0 0 0 0 0 0 0 0 0 0 0 0 0 0 127 0" result="hardAlpha"/>
<feOffset dy="4"/>
<feGaussianBlur stdDeviation="4"/>
<feComposite in2="hardAlpha" operator="out"/>
<feColorMatrix type="matrix" values="0 0 0 0 0.0588235 0 0 0 0 0.145098 0 0 0 0 0.137255 0 0 0 0.1 0"/>
<feBlend mode="normal" in2="BackgroundImageFix" result="effect1_dropShadow_95_203"/>
<feBlend mode="normal" in="SourceGraphic" in2="effect1_dropShadow_95_203" result="shape"/>
</filter>
<filter id="filter2_d_95_203" x="172.109" y="189.57" width="179.256" height="233.876" filterUnits="userSpaceOnUse" color-interpolation-filters="sRGB">
<feFlood flood-opacity="0" result="BackgroundImageFix"/>
<feColorMatrix in="SourceAlpha" type="matrix" values="0 0 0 0 0 0 0 0 0 0 0 0 0 0 0 0 0 0 127 0" result="hardAlpha"/>
<feOffset dy="4"/>
<feGaussianBlur stdDeviation="4"/>
<feComposite in2="hardAlpha" operator="out"/>
<feColorMatrix type="matrix" values="0 0 0 0 0.0588235 0 0 0 0 0.145098 0 0 0 0 0.137255 0 0 0 0.1 0"/>
<feBlend mode="normal" in2="BackgroundImageFix" result="effect1_dropShadow_95_203"/>
<feBlend mode="normal" in="SourceGraphic" in2="effect1_dropShadow_95_203" result="shape"/>
</filter>
<filter id="filter3_d_95_203" x="212.67" y="318.777" width="102.585" height="102.166" filterUnits="userSpaceOnUse" color-interpolation-filters="sRGB">
<feFlood flood-opacity="0" result="BackgroundImageFix"/>
<feColorMatrix in="SourceAlpha" type="matrix" values="0 0 0 0 0 0 0 0 0 0 0 0 0 0 0 0 0 0 127 0" result="hardAlpha"/>
<feOffset dy="4"/>
<feGaussianBlur stdDeviation="4"/>
<feComposite in2="hardAlpha" operator="out"/>
<feColorMatrix type="matrix" values="0 0 0 0 0.0588235 0 0 0 0 0.145098 0 0 0 0 0.137255 0 0 0 0.1 0"/>
<feBlend mode="normal" in2="BackgroundImageFix" result="effect1_dropShadow_95_203"/>
<feBlend mode="normal" in="SourceGraphic" in2="effect1_dropShadow_95_203" result="shape"/>
</filter>
</defs>
</svg>
