<svg width="386" height="345" viewBox="0 0 386 345" fill="none" xmlns="http://www.w3.org/2000/svg">
<g filter="url(#filter0_d_95_203)">
<path d="M248.155 60.216C325.244 108.062 387.222 176.259 375.609 231.944C364.197 287.863 279.194 331.269 206.135 332.167C133.076 333.065 72.1621 291.689 37.4738 222.023C2.9871 152.591 -5.50858 55.0722 36.5615 20.0755C78.4299 -15.1554 170.832 12.5722 248.155 60.216Z" fill="#00ADA2" fill-opacity="0.35" shape-rendering="crispEdges"/>
</g>
<g filter="url(#filter1_d_95_203)">
<path d="M245.362 85.3838C294.566 111.806 338.534 163.899 330.581 217.484C322.46 271.214 262.08 326.725 199.027 331.333C135.806 336.087 69.8883 290.251 50.8749 236.074C32.0067 182.065 59.8976 119.545 101.05 88.8171C142.058 57.9207 196.159 58.9618 245.362 85.3838Z" fill="#00ADA2" fill-opacity="0.35" shape-rendering="crispEdges"/>
</g>
<g filter="url(#filter2_d_95_203)">
<path d="M268.95 200.895C280.977 246.602 273.264 295.535 242.875 317.113C212.486 338.69 159.582 332.918 133.071 308.156C106.392 283.549 106.273 239.797 120.698 196.976C135.117 154.317 164.085 112.427 194.702 112.571C225.15 112.869 256.923 155.188 268.95 200.895Z" fill="#00ADA2" fill-opacity="0.35" shape-rendering="crispEdges"/>
</g>
<g filter="url(#filter3_d_95_203)">
<path d="M215.459 251.209C231.566 261.727 241.007 279.746 237.541 295.853C234.123 312.016 217.846 326.324 200.317 327.803C182.836 329.339 164.104 318.046 156.16 300.402C148.16 282.807 150.949 258.861 163.733 248.344C176.517 237.827 199.345 240.796 215.459 251.209Z" fill="#00ADA2" fill-opacity="0.35" shape-rendering="crispEdges"/>
</g>
<defs>
<filter id="filter0_d_95_203" x="0.201172" y="0.177734" width="384.812" height="344.004" filterUnits="userSpaceOnUse" color-interpolation-filters="sRGB">
<feFlood flood-opacity="0" result="BackgroundImageFix"/>
<feColorMatrix in="SourceAlpha" type="matrix" values="0 0 0 0 0 0 0 0 0 0 0 0 0 0 0 0 0 0 127 0" result="hardAlpha"/>
<feOffset dy="4"/>
<feGaussianBlur stdDeviation="4"/>
<feComposite in2="hardAlpha" operator="out"/>
<feColorMatrix type="matrix" values="0 0 0 0 0.0588235 0 0 0 0 0.145098 0 0 0 0 0.137255 0 0 0 0.1 0"/>
<feBlend mode="normal" in2="BackgroundImageFix" result="effect1_dropShadow_95_203"/>
<feBlend mode="normal" in="SourceGraphic" in2="effect1_dropShadow_95_203" result="shape"/>
</filter>
<filter id="filter1_d_95_203" x="36.8545" y="61.5967" width="302.663" height="282.076" filterUnits="userSpaceOnUse" color-interpolation-filters="sRGB">
<feFlood flood-opacity="0" result="BackgroundImageFix"/>
<feColorMatrix in="SourceAlpha" type="matrix" values="0 0 0 0 0 0 0 0 0 0 0 0 0 0 0 0 0 0 127 0" result="hardAlpha"/>
<feOffset dy="4"/>
<feGaussianBlur stdDeviation="4"/>
<feComposite in2="hardAlpha" operator="out"/>
<feColorMatrix type="matrix" values="0 0 0 0 0.0588235 0 0 0 0 0.145098 0 0 0 0 0.137255 0 0 0 0.1 0"/>
<feBlend mode="normal" in2="BackgroundImageFix" result="effect1_dropShadow_95_203"/>
<feBlend mode="normal" in="SourceGraphic" in2="effect1_dropShadow_95_203" result="shape"/>
</filter>
<filter id="filter2_d_95_203" x="103.109" y="108.57" width="179.256" height="233.876" filterUnits="userSpaceOnUse" color-interpolation-filters="sRGB">
<feFlood flood-opacity="0" result="BackgroundImageFix"/>
<feColorMatrix in="SourceAlpha" type="matrix" values="0 0 0 0 0 0 0 0 0 0 0 0 0 0 0 0 0 0 127 0" result="hardAlpha"/>
<feOffset dy="4"/>
<feGaussianBlur stdDeviation="4"/>
<feComposite in2="hardAlpha" operator="out"/>
<feColorMatrix type="matrix" values="0 0 0 0 0.0588235 0 0 0 0 0.145098 0 0 0 0 0.137255 0 0 0 0.1 0"/>
<feBlend mode="normal" in2="BackgroundImageFix" result="effect1_dropShadow_95_203"/>
<feBlend mode="normal" in="SourceGraphic" in2="effect1_dropShadow_95_203" result="shape"/>
</filter>
<filter id="filter3_d_95_203" x="143.67" y="237.777" width="102.585" height="102.165" filterUnits="userSpaceOnUse" color-interpolation-filters="sRGB">
<feFlood flood-opacity="0" result="BackgroundImageFix"/>
<feColorMatrix in="SourceAlpha" type="matrix" values="0 0 0 0 0 0 0 0 0 0 0 0 0 0 0 0 0 0 127 0" result="hardAlpha"/>
<feOffset dy="4"/>
<feGaussianBlur stdDeviation="4"/>
<feComposite in2="hardAlpha" operator="out"/>
<feColorMatrix type="matrix" values="0 0 0 0 0.0588235 0 0 0 0 0.145098 0 0 0 0 0.137255 0 0 0 0.1 0"/>
<feBlend mode="normal" in2="BackgroundImageFix" result="effect1_dropShadow_95_203"/>
<feBlend mode="normal" in="SourceGraphic" in2="effect1_dropShadow_95_203" result="shape"/>
</filter>
</defs>
</svg>
