<svg width="157" height="29" viewBox="0 0 157 29" fill="none" xmlns="http://www.w3.org/2000/svg">
<path fill-rule="evenodd" clip-rule="evenodd" d="M77.377 9.07158C77.2087 7.11807 76.4745 5.56241 75.1745 4.40461C73.6812 3.07461 71.5579 2.40961 68.8045 2.40961H57.5345V27.0846H62.9595V17.5296H65.6195C66.3195 17.5296 66.9262 17.6579 67.4395 17.9146C67.9529 18.1479 68.3845 18.5796 68.7346 19.2096L71.9682 25.1734L74.1831 18.5799C73.5442 17.832 72.8013 17.3302 71.9545 17.0746C73.296 16.7348 74.3976 16.1687 75.2592 15.3764L77.377 9.07158ZM90.3967 21.7296H97.8761L100.186 27.0846H105.646L95.8628 5.79676L93.7446 11.9709L96.0911 17.4946H91.8496L90.3967 21.7296ZM2.77869 27.0846V2.40961H8.20369V22.4996H19.6137V27.0846H2.77869ZM22.8422 27.0846V2.40961H28.2672V27.0846H22.8422ZM33.1986 27.0846V2.40961H44.5036C47.1403 2.40961 49.1703 2.98127 50.5936 4.12461C52.0403 5.26794 52.7636 6.83127 52.7636 8.81461C52.7636 10.1213 52.4369 11.2529 51.7836 12.2096C51.1303 13.1429 50.2203 13.8429 49.0536 14.3096C50.4536 14.7063 51.5269 15.4063 52.2736 16.4096C53.0436 17.4129 53.4286 18.6496 53.4286 20.1196C53.4286 22.3129 52.6586 24.0279 51.1186 25.2646C49.6019 26.4779 47.5253 27.0846 44.8886 27.0846H33.1986ZM38.3786 12.5596H43.5586C46.2186 12.5596 47.5486 11.5329 47.5486 9.47961C47.5486 7.44961 46.2186 6.43461 43.5586 6.43461H38.3786V12.5596ZM38.3786 23.0596H44.1536C45.5536 23.0596 46.5803 22.7913 47.2336 22.2546C47.8869 21.7179 48.2136 20.9013 48.2136 19.8046C48.2136 18.7313 47.8869 17.9263 47.2336 17.3896C46.5803 16.8529 45.5536 16.5846 44.1536 16.5846H38.3786V23.0596ZM62.9595 13.6096H67.8245C70.7412 13.6096 72.1995 12.4429 72.1995 10.1096C72.1995 7.79961 70.7412 6.64461 67.8245 6.64461H62.9595V13.6096ZM107.779 27.0846V2.40961H119.049C121.802 2.40961 123.925 3.07461 125.419 4.40461C126.912 5.73461 127.659 7.58961 127.659 9.96961C127.659 11.8129 127.18 13.3529 126.224 14.5896C125.29 15.8029 123.949 16.6313 122.199 17.0746C123.435 17.4479 124.45 18.3463 125.244 19.7696L129.234 27.0846H123.249L118.979 19.2096C118.629 18.5796 118.197 18.1479 117.684 17.9146C117.17 17.6579 116.564 17.5296 115.864 17.5296H113.204V27.0846H107.779ZM113.204 13.6096H118.069C120.985 13.6096 122.444 12.4429 122.444 10.1096C122.444 7.79961 120.985 6.64461 118.069 6.64461H113.204V13.6096ZM137.686 27.0846V15.9546L128.166 2.40961H134.466L140.486 11.0896L146.506 2.40961H152.561L143.111 15.9896V27.0846H137.686Z" fill="#F3F2EE"/>
<path d="M82.2417 1.91541L94.5233 1.91542L85.8884 27.0846H73.7871L82.2417 1.91541Z" fill="#00ADA2"/>
</svg>
