<svg width="174" height="29" viewBox="0 0 174 29" fill="none" xmlns="http://www.w3.org/2000/svg">
<path fill-rule="evenodd" clip-rule="evenodd" d="M92.1788 15.8494V27.0846H97.0788V12.1396L103.414 23.3746H106.459L112.829 12.0346V27.0846H117.764V2.40961H113.319L105.024 17.5646L96.7528 2.51696L92.1788 15.8494ZM122.768 27.0846V2.40961H134.073C136.71 2.40961 138.74 2.98127 140.163 4.12461C141.61 5.26794 142.333 6.83127 142.333 8.81461C142.333 10.1213 142.006 11.2529 141.353 12.2096C140.7 13.1429 139.79 13.8429 138.623 14.3096C140.023 14.7063 141.096 15.4063 141.843 16.4096C142.613 17.4129 142.998 18.6496 142.998 20.1196C142.998 22.3129 142.228 24.0279 140.688 25.2646C139.171 26.4779 137.095 27.0846 134.458 27.0846H122.768ZM127.948 12.5596H133.128C135.788 12.5596 137.118 11.5329 137.118 9.47961C137.118 7.44961 135.788 6.43461 133.128 6.43461H127.948V12.5596ZM127.948 23.0596H133.723C135.123 23.0596 136.15 22.7913 136.803 22.2546C137.456 21.7179 137.783 20.9013 137.783 19.8046C137.783 18.7313 137.456 17.9263 136.803 17.3896C136.15 16.8529 135.123 16.5846 133.723 16.5846H127.948V23.0596ZM144.166 27.0846L155.506 2.40961H159.881L171.221 27.0846H165.761L163.451 21.7296H151.936L149.661 27.0846H144.166ZM157.641 8.18461L153.756 17.4946H161.666L157.711 8.18461H157.641Z" fill="black"/>
<path fill-rule="evenodd" clip-rule="evenodd" d="M74.6151 17.2939L69.5726 2.40961H65.6526L59.6676 19.2796L53.9976 2.40961H48.4326L57.2176 27.0846H61.6276L67.4726 10.7046L72.2637 24.2938L74.6151 17.2939ZM2.77869 27.0846V2.40961H6.80369L19.1237 18.1246V2.40961H24.1637V27.0846H20.1737L7.81869 11.3346V27.0846H2.77869ZM29.1312 27.0846V2.40961H46.0362V6.64461H34.3112V12.4196H45.2662V16.6896H34.3112V22.8496H46.0362V27.0846H29.1312Z" fill="black"/>
<path d="M82.2417 1.91541L94.5233 1.91542L85.8885 27.0846H73.7872L82.2417 1.91541Z" fill="#00ADA2"/>
</svg>
