<svg width="419" height="1311" viewBox="0 0 419 1311" fill="none" xmlns="http://www.w3.org/2000/svg">
<g clip-path="url(#clip0_363_103)">
<path d="M419 0H-481V1311H419V0Z" fill="#0F2523"/>
<path d="M210 1311L211.7 1279.75C213.3 1248.29 216.7 1185.8 210.3 1123.53C204 1061.25 188 999.2 180.2 936.928C172.3 874.655 172.7 812.164 176 749.455C179.3 686.745 185.7 624.254 185.2 561.545C184.7 498.835 177.3 436.344 170.2 374.072C163 311.799 156 249.745 152.2 187.473C148.3 125.201 147.7 62.7095 147.3 31.2455L147 0H419V31.2455C419 62.7095 419 125.201 419 187.473C419 249.745 419 311.799 419 374.072C419 436.344 419 498.835 419 561.545C419 624.254 419 686.745 419 749.455C419 812.164 419 874.655 419 936.928C419 999.2 419 1061.25 419 1123.53C419 1185.8 419 1248.29 419 1279.75V1311H210Z" fill="#055852"/>
<path d="M290 1311L291.2 1279.75C292.3 1248.29 294.7 1185.8 285.7 1123.53C276.7 1061.25 256.3 999.2 252 936.928C247.7 874.655 259.3 812.164 267.8 749.455C276.3 686.745 281.7 624.254 282.8 561.545C284 498.835 281 436.344 272.8 374.072C264.7 311.799 251.3 249.745 248.8 187.473C246.3 125.201 254.7 62.7095 258.8 31.2455L263 0H419V31.2455C419 62.7095 419 125.201 419 187.473C419 249.745 419 311.799 419 374.072C419 436.344 419 498.835 419 561.545C419 624.254 419 686.745 419 749.455C419 812.164 419 874.655 419 936.928C419 999.2 419 1061.25 419 1123.53C419 1185.8 419 1248.29 419 1279.75V1311H290Z" fill="#048179"/>
<path d="M298 1311L303.3 1279.75C308.7 1248.29 319.3 1185.8 323.2 1123.53C327 1061.25 324 999.2 327.5 936.928C331 874.655 341 812.164 338.2 749.455C335.3 686.745 319.7 624.254 321 561.545C322.3 498.835 340.7 436.344 342 374.072C343.3 311.799 327.7 249.745 327 187.473C326.3 125.201 340.7 62.7095 347.8 31.2455L355 0H419V31.2455C419 62.7095 419 125.201 419 187.473C419 249.745 419 311.799 419 374.072C419 436.344 419 498.835 419 561.545C419 624.254 419 686.745 419 749.455C419 812.164 419 874.655 419 936.928C419 999.2 419 1061.25 419 1123.53C419 1185.8 419 1248.29 419 1279.75V1311H298Z" fill="#00ADA2"/>
</g>
<defs>
<clipPath id="clip0_363_103">
<rect width="419" height="1311" fill="white"/>
</clipPath>
</defs>
</svg>
