<svg width="122" height="72" viewBox="0 0 122 72" fill="none" xmlns="http://www.w3.org/2000/svg">
<path d="M38.086 0.188232H31.1695H24.0809L19.291 29.5197C19.1898 29.533 19.0886 29.5396 18.9839 29.5529C8.40156 30.9353 0.18891 39.6847 0.280048 49.4684C0.320555 53.5597 1.74165 56.7557 4.29018 59.3749C6.59229 61.7421 9.72816 63.0252 12.8944 63.0252C14.1332 63.0252 15.3755 62.8296 16.5737 62.4251C22.2783 60.4955 24.1721 55.7944 25.0599 51.491C25.0599 51.4942 25.0564 51.5008 25.0564 51.5075C25.3129 46.7035 22.7003 41.9591 17.718 39.151L16.1416 48.9281C15.6354 51.7031 14.9771 53.3608 13.5661 53.8383C12.7222 54.1233 11.6826 53.8283 10.9805 53.1055C10.0758 52.1739 9.54588 51.1362 9.52899 49.3823C9.48174 44.4921 13.3973 40.6529 17.718 39.151C19.0751 38.6701 20.486 38.4448 22.0624 38.4448C23.6623 38.4448 25.3468 38.7465 26.886 39.2537C32.7223 40.6065 36.2597 46.6868 37.134 53.2713L37.6471 56.9614H47.3585L38.086 0.188232ZM28.1247 30.1497L30.9095 9.15973H30.994H31.2539L34.3627 32.5832C32.3881 31.5254 30.2884 30.7 28.1247 30.1497ZM121.293 16.0226V56.958H111.602V16.0226H121.293ZM93.0057 71.1381C105.731 71.1381 106.714 64.0133 106.714 53.9444L106.798 16.026H101.782C99.9763 16.026 97.7618 17.3554 97.6101 19.0696L97.4919 20.3923L97.0227 19.1457C96.0877 16.6692 93.7348 15.3595 90.2176 15.3595C86.6835 15.3595 84.0741 16.6923 82.4606 19.3182C80.8909 21.8711 80.5635 25.1732 80.5635 27.494V43.4112C80.5635 47.3599 81.1509 50.2675 82.3593 52.2966C83.8277 54.7633 86.2041 55.9635 89.6303 55.9635C92.8708 55.9635 95.3214 54.6107 96.5299 52.154L97.107 50.9836V52.2834V56.8419C97.107 60.8503 96.8538 63.6883 93.5965 63.6883C92.8505 63.6883 90.4236 63.4396 90.4236 60.2402V60.1243H80.648V60.3232C80.648 63.433 81.5053 65.9362 83.1966 67.7597C85.2691 70.0008 88.5703 71.1381 93.0057 71.1381ZM96.9383 41.7569C96.9383 45.6591 96.3779 47.7743 93.4277 47.7743C90.6328 47.7743 90.2547 45.1518 90.2547 42.5857V28.3262C90.2547 25.1135 91.4294 23.5519 93.8497 23.5519C96.5703 23.5519 96.9383 26.1745 96.9383 28.7406V41.7569ZM121.799 7.0213C121.799 9.92229 119.45 12.1933 116.449 12.1933C113.495 12.1933 111.183 9.92229 111.183 7.0213C111.183 4.0739 113.495 1.76636 116.449 1.76636C119.399 1.76636 121.799 4.12363 121.799 7.0213ZM60.1417 29.2379V56.9614H50.3661L50.2818 16.026H55.7163C57.583 16.026 59.7365 17.319 59.9729 19.2451L60.0809 20.1271L60.5366 19.3612C62.1129 16.709 64.6648 15.3629 68.1247 15.3629C73.6909 15.3629 76.5163 18.8872 76.5163 25.8429V56.9646H66.8253V27.9946C66.8253 25.0472 65.7855 23.5519 63.7366 23.5519C61.0834 23.5519 60.1417 25.0406 60.1417 29.2379Z" fill="#AAAAA9"/>
<path d="M24.7089 51.2866C25.1985 49.2343 26.3325 41.3536 26.5352 39.0329C24.9993 38.529 23.3115 38.2239 21.7116 38.2239C20.1352 38.2239 18.7241 38.4527 17.3672 38.9301C22.3529 41.7383 24.9656 46.4826 24.7089 51.2866Z" fill="#AAAAA9"/>
</svg>
