<svg width="394" height="336" viewBox="0 0 394 336" fill="none" xmlns="http://www.w3.org/2000/svg">
<g clip-path="url(#clip0_1264_182)">
<g clip-path="url(#clip1_1264_182)">
<path d="M53.1075 0.188232H46.191H39.1024L34.3125 29.5197C34.2113 29.533 34.1101 29.5396 34.0054 29.5529C23.423 30.9353 15.2104 39.6847 15.3015 49.4684C15.342 53.5597 16.7631 56.7557 19.3117 59.3749C21.6138 61.7421 24.7496 63.0252 27.9159 63.0252C29.1547 63.0252 30.397 62.8296 31.5952 62.4251C37.2998 60.4955 39.1936 55.7944 40.0814 51.491C40.0814 51.4942 40.0779 51.5008 40.0779 51.5075C40.3344 46.7035 37.7218 41.9591 32.7395 39.151L31.1631 48.9281C30.6569 51.7031 29.9986 53.3608 28.5876 53.8383C27.7437 54.1233 26.7041 53.8283 26.002 53.1055C25.0973 52.1739 24.5674 51.1362 24.5505 49.3823C24.5032 44.4921 28.4188 40.6529 32.7395 39.151C34.0966 38.6701 35.5075 38.4448 37.0839 38.4448C38.6838 38.4448 40.3683 38.7465 41.9075 39.2537C47.7438 40.6065 51.2812 46.6868 52.1555 53.2713L52.6686 56.9614H62.38L53.1075 0.188232ZM43.1462 30.1497L45.931 9.15973H46.0155H46.2754L49.3842 32.5832C47.4096 31.5254 45.3099 30.7 43.1462 30.1497ZM136.314 16.0226V56.958H126.623V16.0226H136.314ZM108.027 71.1381C120.752 71.1381 121.735 64.0133 121.735 53.9444L121.819 16.026H116.803C114.998 16.026 112.783 17.3554 112.632 19.0696L112.513 20.3923L112.044 19.1457C111.109 16.6692 108.756 15.3595 105.239 15.3595C101.705 15.3595 99.0956 16.6923 97.4821 19.3182C95.9124 21.8711 95.585 25.1732 95.585 27.494V43.4112C95.585 47.3599 96.1724 50.2675 97.3808 52.2966C98.8492 54.7633 101.226 55.9635 104.652 55.9635C107.892 55.9635 110.343 54.6107 111.551 52.154L112.128 50.9836V52.2834V56.8419C112.128 60.8503 111.875 63.6883 108.618 63.6883C107.872 63.6883 105.445 63.4396 105.445 60.2402V60.1243H95.6695V60.3232C95.6695 63.433 96.5268 65.9362 98.2181 67.7597C100.291 70.0008 103.592 71.1381 108.027 71.1381ZM111.96 41.7569C111.96 45.6591 111.399 47.7743 108.449 47.7743C105.654 47.7743 105.276 45.1518 105.276 42.5857V28.3262C105.276 25.1135 106.451 23.5519 108.871 23.5519C111.592 23.5519 111.96 26.1745 111.96 28.7406V41.7569ZM136.82 7.0213C136.82 9.92229 134.471 12.1933 131.47 12.1933C128.516 12.1933 126.204 9.92229 126.204 7.0213C126.204 4.0739 128.516 1.76636 131.47 1.76636C134.42 1.76636 136.82 4.12363 136.82 7.0213ZM75.1632 29.2379V56.9614H65.3876L65.3033 16.026H70.7378C72.6045 16.026 74.758 17.319 74.9944 19.2451L75.1024 20.1271L75.5581 19.3612C77.1344 16.709 79.6863 15.3629 83.1462 15.3629C88.7124 15.3629 91.5378 18.8872 91.5378 25.8429V56.9646H81.8468V27.9946C81.8468 25.0472 80.807 23.5519 78.7581 23.5519C76.1049 23.5519 75.1632 25.0406 75.1632 29.2379Z" fill="#F5F5EF"/>
<path d="M39.7304 51.2866C40.22 49.2343 41.354 41.3536 41.5567 39.0329C40.0208 38.529 38.333 38.2239 36.7331 38.2239C35.1567 38.2239 33.7456 38.4527 32.3887 38.9301C37.3744 41.7383 39.9871 46.4826 39.7304 51.2866Z" fill="black"/>
</g>
<g clip-path="url(#clip2_1264_182)">
<path d="M8.46055 226.813C4.61337 226.813 1.35742 230.045 1.35742 233.87C1.35742 237.727 4.61039 240.991 8.46055 240.991C12.2756 240.991 15.4993 237.734 15.4993 233.87C15.4993 230.045 12.2756 226.813 8.46055 226.813Z" fill="#F5F5EF"/>
<path d="M109.648 216.965C108.74 216.111 107.705 215.404 106.58 214.87C105.42 214.307 104.148 214.016 102.859 214.019C101.902 214.01 100.955 214.211 100.084 214.608C99.2355 215.001 98.8105 215.678 98.8105 216.638C98.8105 217.552 99.2784 218.206 100.214 218.601C101.149 218.996 102.662 219.432 104.752 219.911C106.008 220.185 107.242 220.557 108.44 221.025C109.649 221.487 110.783 222.126 111.804 222.922C112.801 223.703 113.623 224.684 114.22 225.802C114.828 226.937 115.133 228.29 115.133 229.859C115.133 231.911 114.72 233.646 113.894 235.064C113.099 236.448 111.992 237.625 110.661 238.501C109.293 239.391 107.78 240.034 106.19 240.399C104.566 240.788 102.902 240.986 101.232 240.988C98.578 240.989 95.9414 240.558 93.4251 239.712C90.8796 238.861 88.7578 237.606 87.0598 235.947L93.0663 229.598C94.0693 230.681 95.2632 231.569 96.588 232.217C97.9666 232.913 99.4897 233.272 101.033 233.264C101.929 233.259 102.811 233.046 103.612 232.643C104.46 232.229 104.884 231.497 104.884 230.45C104.884 229.447 104.362 228.704 103.318 228.221C102.273 227.738 100.641 227.237 98.4219 226.716C97.2669 226.448 96.1323 226.098 95.0265 225.669C93.9246 225.251 92.8988 224.654 91.9905 223.901C91.0838 223.142 90.34 222.207 89.8038 221.152C89.2376 220.062 88.9545 218.753 88.9551 217.225C88.9551 215.261 89.3687 213.591 90.1953 212.217C90.9976 210.868 92.0905 209.716 93.3941 208.846C94.7233 207.963 96.191 207.31 97.7359 206.915C99.2805 206.506 100.871 206.297 102.468 206.293C104.896 206.292 107.31 206.679 109.617 207.438C111.945 208.203 113.914 209.348 115.525 210.876L109.648 216.965ZM137.393 206.43C134.177 206.43 131.462 207.373 129.415 209.172V192.174H119.327V240.011H129.413V222.15C129.413 217.644 132.332 216.037 135.064 216.037C139.312 216.037 140.203 219.327 140.203 222.086V240.011H150.298V219.401C150.298 211.765 144.992 206.43 137.39 206.43L137.393 206.43ZM55.0713 211.868C56.9863 210.035 59.267 208.629 61.7632 207.744C64.2649 206.836 66.905 206.372 69.5654 206.372C72.307 206.372 74.6248 206.71 76.5177 207.386C78.4112 208.062 79.9447 209.11 81.1206 210.528C82.2954 211.947 83.1554 213.736 83.6995 215.896C84.2437 218.056 84.5161 220.62 84.5161 223.587V239.941H74.6254V236.545C68.3615 244.399 54.39 241.484 54.39 230.588C54.39 228.617 55.821 220.705 66.9615 219.693C69.1738 219.492 71.1442 219.592 74.399 219.592V219.067C74.399 217.454 73.8328 216.265 72.701 215.5C71.5692 214.735 70.1763 214.354 68.523 214.355C66.9996 214.355 65.4953 214.69 64.1156 215.336C62.7013 215.991 61.8079 216.555 60.8066 217.471L55.0713 211.868ZM74.7226 225.81H70.7711C67.5467 225.81 65.788 227.172 65.267 227.736C64.7271 228.3 64.4318 229.056 64.4458 229.839C64.4309 230.34 64.565 230.835 64.8296 231.261C65.0768 231.648 65.4104 231.972 65.804 232.208C66.2238 232.455 66.6839 232.626 67.1629 232.712C67.6481 232.808 68.1404 232.858 68.635 232.86C70.6042 232.86 72.1109 232.318 73.1551 231.232C74.1987 230.146 74.7208 228.675 74.7202 226.819V225.81H74.7226ZM40.7363 192.116V209.146C38.5138 207.292 35.7835 206.354 32.53 206.354C23.5006 206.354 16.6895 213.745 16.6895 223.544C16.6895 233.343 23.4988 240.97 32.53 240.97C35.8038 240.97 38.8559 239.856 40.9073 237.814V239.941H50.8236V192.116H40.7363ZM41.7626 226.79C41.396 227.798 40.8513 228.731 40.1546 229.545C39.4555 230.355 38.6015 231.017 37.643 231.492C36.6614 231.983 35.5457 232.228 34.2959 232.228C33.0002 232.228 31.8606 231.982 30.8767 231.489C29.9238 231.021 29.0793 230.357 28.3973 229.542C27.7189 228.72 27.2071 227.773 26.8906 226.755C26.5611 225.726 26.393 224.652 26.3923 223.571C26.3923 222.499 26.5616 221.434 26.8948 220.415C27.2091 219.411 27.7247 218.482 28.4101 217.685C29.0954 216.888 29.936 216.24 30.8802 215.78C31.8612 215.289 33.0014 215.042 34.2995 215.042C35.5493 215.042 36.6656 215.288 37.649 215.78C38.6073 216.255 39.4612 216.917 40.1605 217.728C40.8571 218.541 41.4017 219.474 41.7686 220.481C42.5276 222.517 42.5276 224.759 41.7686 226.795L41.7626 226.79Z" fill="#F5F5EF"/>
</g>
<g clip-path="url(#clip3_1264_182)">
<path d="M23.6203 104.638V122.769C23.6203 122.769 29.9443 122.769 33.3288 122.509C35.9904 122.039 36.4803 121.779 36.9702 119.09L37.95 115.152H40.8447L40.3548 123.759L40.6117 132.577H37.6932L36.9702 129.133C36.2474 126.683 35.2675 126.185 33.3288 125.95C30.9032 125.69 23.6203 125.69 23.6203 125.69V140.897C23.6203 143.821 25.09 145.071 28.4745 145.071H38.673C41.8245 145.071 44.973 144.811 46.9356 140.167L49.5734 134.273H52.0229C51.766 135.498 50.5532 146.296 50.3202 148.725C50.3202 148.725 41.1016 148.49 37.2272 148.49H19.7459L9.31445 148.725V146.061L12.699 145.306C15.1485 144.811 15.8714 144.081 15.8714 142.122C15.8714 142.122 16.1283 135.498 16.1283 124.462C16.1283 113.453 15.8714 106.825 15.8714 106.825C15.8714 104.632 15.1485 104.137 12.699 103.642L9.31445 102.917V100.228L19.5129 100.44H38.9299C42.8043 100.44 49.3374 99.7335 49.3374 99.7335C49.3374 99.7335 49.1044 103.883 48.8475 113.691H46.1859L45.2061 110.248C44.2502 105.839 42.8013 103.645 40.1188 103.645H24.857C23.6203 103.648 23.6203 103.883 23.6203 104.638ZM62.9203 106.572H65.8389V116.875L75.8042 116.38L75.3143 121.049L65.6059 120.294V138.45C65.6059 143.589 67.3085 145.569 70.2271 145.569C72.8649 145.569 74.8245 144.084 75.5474 142.859L76.9932 144.579C75.5474 147.998 71.4399 149.718 67.5416 149.718C62.7113 149.718 58.789 146.794 58.789 141.16V120.551H52.9997V118.1C57.857 117.605 61.4745 114.657 62.9203 106.572ZM83.807 138.187L85.7428 142.856C86.4657 144.811 88.1685 146.794 92.0429 146.794C96.1742 146.794 97.8769 144.579 97.8769 141.89C97.8769 133.543 81.6115 135.996 81.6115 124.724C81.6115 118.36 86.6987 115.387 93.2557 115.387C96.1742 115.387 100.539 115.882 102.731 116.872C102.241 119.322 101.984 122.506 101.984 124.96L99.5797 125.195L97.8769 120.291C97.387 119.09 95.4274 118.097 93.0227 118.097C90.1042 118.097 87.1886 119.322 87.1886 122.506C87.1886 130.099 103.944 128.4 103.944 139.672C103.944 146.061 98.3668 149.48 91.553 149.48C86.4657 149.48 81.3546 147.5 81.3546 147.5C81.8445 144.576 81.6115 141.395 81.3546 138.187H83.807ZM102.734 161.717C103.457 159.028 103.947 155.612 104.437 152.404L107.099 152.169L108.078 157.308C108.312 158.533 109.034 159.523 110.973 159.523C114.124 159.523 118.256 157.568 122.152 150.705C120.425 146.531 115.337 133.069 110.716 122.766C109.503 120.056 109.27 119.817 107.588 119.322L106.352 118.852V116.377L113.656 116.637L122.617 116.142V118.595L120.425 119.09C118.722 119.325 118.02 120.291 118.02 121.284C118.02 121.544 118.02 121.779 118.252 122.274C118.719 123.759 122.617 134.771 125.536 142.125C127.941 136.986 132.561 125.458 133.285 123.499C133.542 122.509 133.775 122.274 133.775 121.544C133.775 120.294 133.051 119.564 131.37 119.093L129.643 118.595V116.145L136.457 116.38L142.757 116.145V118.595L141.544 119.561C139.119 120.551 138.862 120.786 137.903 122.766L127.239 147.992C120.914 162.469 114.358 163.694 109.757 163.694C106.842 163.697 104.649 162.943 102.734 161.717Z" fill="#F5F5EF"/>
</g>
<g clip-path="url(#clip4_1264_182)">
<path d="M270.527 130.671C270.527 126.622 270.374 123.211 270.26 120.324H279.076L279.573 124.785H279.725C281.023 122.761 284.419 119.575 289.763 119.575C296.443 119.575 301.481 123.961 301.481 133.52V152.713H291.366V134.794C291.366 130.671 289.878 127.747 286.252 127.747C283.427 127.747 281.786 129.696 281.138 131.533C280.871 132.095 280.718 133.145 280.718 134.045V152.675H270.603V130.671H270.527ZM327.053 134.045C327.053 133.482 326.977 132.77 326.901 132.283C326.328 129.509 324.076 127.334 320.984 127.334C316.366 127.334 313.962 131.458 313.962 136.594C313.962 142.067 316.71 145.515 320.909 145.515C323.886 145.515 326.214 143.491 326.748 140.642C326.901 139.892 327.015 139.18 327.015 138.28L327.053 134.045ZM337.206 105.667V143.004C337.206 146.64 337.359 150.464 337.473 152.675H328.39L327.893 147.877H327.74C325.68 151.513 321.748 153.35 317.511 153.35C309.763 153.35 303.542 146.79 303.542 136.744C303.466 125.797 310.374 119.5 318.198 119.5C322.244 119.5 325.374 120.849 326.862 123.136H327.015V105.667H337.206ZM360.832 132.845C360.832 130.408 359.726 126.285 355.069 126.285C350.794 126.285 349.076 130.071 348.809 132.845H360.832ZM348.924 139.742C349.267 143.866 353.39 145.89 358.161 145.89C361.595 145.89 364.42 145.403 367.168 144.616L368.466 151.438C365.183 152.713 361.022 153.462 356.671 153.462C345.527 153.462 339.191 147.052 339.191 136.968C339.191 128.796 344.305 119.725 355.679 119.725C366.214 119.725 370.26 127.897 370.26 135.919C370.26 137.606 370.107 139.143 369.916 139.892H348.886L348.924 139.742ZM372.473 130.971C372.473 126.172 372.321 123.136 372.206 120.287H380.947L381.29 126.285H381.557C383.199 121.561 387.244 119.575 390.374 119.575C391.29 119.575 391.748 119.575 392.511 119.725V129.209C391.748 129.059 390.947 128.946 389.763 128.946C386.061 128.946 383.504 130.896 382.816 134.045C382.664 134.719 382.664 135.506 382.664 136.331V152.788H372.549V130.971H372.473ZM256.29 120.362H266.405V152.75H256.29V120.362ZM246.634 119.237C246.634 115.676 248.427 113.015 253.809 112.94C253.466 112.115 253.313 111.253 253.313 110.241C253.313 108.216 254.076 106.455 255.298 105.03C254.725 104.955 254.153 104.955 253.58 104.955C243.542 104.955 236.443 109.978 236.443 118.9V120.25H232.168V127.709H236.443V152.638H246.672V127.709H252.13V120.287H246.634V119.237Z" fill="#F5F5EF"/>
<path d="M204.916 110.241C193.008 110.241 183.466 119.8 183.466 131.458C183.466 143.229 193.046 152.675 204.916 152.675C216.786 152.675 226.367 143.116 226.367 131.458V110.241H204.916Z" fill="#F5F5EF"/>
<path d="M197.092 131.945C195.298 130.183 194.878 127.484 195.947 125.385L197.092 126.51C197.245 125.835 197.665 125.31 198.199 124.823C198.695 124.335 199.306 123.923 199.917 123.736L198.772 122.536C200.909 121.449 203.657 121.861 205.451 123.661C207.779 125.947 207.779 129.658 205.451 131.908C203.123 134.157 199.306 134.194 197.092 131.945ZM206.787 122.311C203.619 119.2 198.619 119.2 195.565 122.311C192.397 125.422 192.397 130.408 195.565 133.482C198.466 136.331 203.085 136.593 206.214 134.044L208.543 136.406C208.199 137.081 208.275 137.868 208.886 138.355L213.275 142.666C213.962 143.341 214.993 143.341 215.68 142.666L216.176 142.179C216.863 141.504 216.863 140.492 216.176 139.817L211.749 135.506C211.252 135.019 210.451 134.832 209.764 135.169L207.436 132.807C209.955 129.658 209.688 125.123 206.787 122.311Z" fill="#0F2523"/>
<path d="M267.36 110.24C267.36 113.539 264.726 116.126 261.367 116.126C258.085 116.126 255.375 113.427 255.375 110.24C255.375 107.054 258.009 104.355 261.367 104.355C264.726 104.355 267.36 107.017 267.36 110.24Z" fill="#F5F5EF"/>
</g>
<g clip-path="url(#clip5_1264_182)">
<path d="M391.151 30.2394L390.55 37.2969H387.603C382.898 37.2969 380.452 40.9856 380.452 44.5208V60.4604H372.113V30.2394H380.011L380.192 34.0114C381.849 31.4248 384.748 30.2394 388.325 30.2394H391.151ZM333.337 60.4601H324.989V44.484C324.989 41.1382 324.694 36.927 319.882 36.927C315.249 36.927 313.402 40.1979 313.402 44.0065V60.4601H305.059V30.2391H312.795L312.972 34.1026C314.629 31.516 317.717 29.5019 322.273 29.5019C330.682 29.5019 333.337 35.3739 333.337 41.4848V60.4601ZM301.42 53.4006L300.836 60.277C298.834 60.802 297.058 60.9904 294.908 60.9904C287.044 60.9904 284.762 57.4636 284.762 50.375V21.717H293.108V30.2398H301.413L300.836 37.2963H293.108V49.7612C293.108 52.6058 293.906 54.1424 296.889 54.1424C298.186 54.1424 299.629 53.9897 301.42 53.4006ZM282.022 30.2394L281.376 37.2969H279.108C274.412 37.2969 272.077 40.981 272.077 44.5208V60.4604H263.73V30.2394H271.633L271.797 34.0114C273.464 31.4248 276.364 30.2394 279.945 30.2394H282.022ZM226.067 57.1121C220.407 60.0738 214.752 61.7823 207.284 61.5701C193.438 61.1567 183.449 52.7483 183.449 38.5456C183.449 24.405 193.534 15.3701 207.29 15.1579C214.263 15.0536 220.503 16.7841 225.38 20.9934L219.505 26.8059C216.487 24.2898 212.047 22.819 206.74 23.0541C198.083 23.4483 192.867 29.6012 192.752 38.0608C192.639 47.2265 198.385 53.5431 207.369 53.7736C211.596 53.877 214.624 53.3218 217.245 52.1712V42.8023H207.908L208.538 35.1183H226.067V57.1121ZM368.386 48.2218H345.504C346.156 52.0835 349.26 54.4067 353.126 54.512C356.883 54.6116 358.985 53.5013 361.734 50.7792L367.179 54.8403C363.309 59.5023 358.665 61.199 353.375 61.199C344.07 61.199 337.098 54.8357 337.098 45.3489C337.098 35.8722 344.035 29.5016 353.027 29.5016C362.937 29.5016 368.386 35.3737 368.386 45.7971V48.2218ZM360.025 41.9034C359.769 38.0856 356.844 35.6719 352.817 35.8255C348.763 35.9755 346.063 38.5577 345.504 41.9034H360.025ZM258.476 40.6706V60.4601H251.118L250.936 57.4801C248.678 60.215 245.013 61.1992 241.239 61.1992C235.557 61.1992 230.188 58.4588 230.076 52.0764C229.907 42.0445 241.62 41.3319 248.976 41.3319H250.446V40.935C250.446 37.6176 248.202 35.8257 243.976 35.8257C240.942 35.8257 237.947 37.0157 235.733 39.0463L230.918 34.2617C235.29 30.7952 239.838 29.5018 244.685 29.5018C254.256 29.5018 258.476 33.8281 258.476 40.6706ZM250.446 47.2809H249.286C245.335 47.2891 238.394 47.4793 238.421 51.5203C238.458 57.2131 250.446 55.4039 250.446 48.5385V47.2809ZM384.641 56.9447C384.641 55.0212 386.125 53.5715 388.028 53.5715C389.908 53.5715 391.395 55.0212 391.395 56.9447C391.395 58.902 389.908 60.3472 388.028 60.3472C386.125 60.3472 384.641 58.902 384.641 56.9447ZM388.028 61.0232C390.294 61.0232 392.227 59.3018 392.227 56.9447C392.227 54.6114 390.294 52.8937 388.028 52.8937C385.742 52.8937 383.807 54.6114 383.807 56.9447C383.807 59.3018 385.742 61.0232 388.028 61.0232ZM387.148 57.2704H387.985L389.247 59.3018H390.062L388.7 57.2374C389.404 57.1533 389.942 56.7838 389.942 55.945C389.942 55.0212 389.381 54.6114 388.247 54.6114H386.425V59.3018H387.148V57.2704ZM387.148 56.6657V55.216H388.136C388.643 55.216 389.182 55.323 389.182 55.9038C389.182 56.6237 388.632 56.6657 388.018 56.6657H387.148Z" fill="#F5F5EF"/>
</g>
<g clip-path="url(#clip6_1264_182)">
<path d="M273.91 224.033C273.91 233.888 266.197 241.15 256.732 241.15C247.267 241.15 239.554 233.888 239.554 224.033C239.554 214.108 247.267 206.916 256.732 206.916C266.197 206.916 273.91 214.108 273.91 224.033ZM266.391 224.033C266.391 217.874 261.92 213.661 256.732 213.661C251.544 213.661 247.074 217.874 247.074 224.033C247.074 230.129 251.544 234.405 256.732 234.405C261.92 234.405 266.391 230.122 266.391 224.033Z" fill="#F5F5EF"/>
<path d="M310.968 224.033C310.968 233.888 303.255 241.15 293.789 241.15C284.324 241.15 276.611 233.888 276.611 224.033C276.611 214.116 284.324 206.916 293.789 206.916C303.255 206.916 310.968 214.108 310.968 224.033ZM303.448 224.033C303.448 217.874 298.977 213.661 293.789 213.661C288.602 213.661 284.131 217.874 284.131 224.033C284.131 230.129 288.602 234.405 293.789 234.405C298.977 234.405 303.448 230.122 303.448 224.033Z" fill="#F5F5EF"/>
<path d="M346.483 207.95V238.68C346.483 251.321 339.025 256.484 330.208 256.484C321.909 256.484 316.914 250.936 315.03 246.398L321.577 243.673C322.742 246.459 325.599 249.747 330.2 249.747C335.845 249.747 339.342 246.266 339.342 239.714V237.253H339.079C337.396 239.329 334.154 241.142 330.061 241.142C321.5 241.142 313.655 233.687 313.655 224.094C313.655 214.432 321.5 206.916 330.061 206.916C334.146 206.916 337.388 208.729 339.079 210.743H339.342V207.957H346.483V207.95ZM339.874 224.094C339.874 218.067 335.852 213.661 330.733 213.661C325.545 213.661 321.198 218.067 321.198 224.094C321.198 230.06 325.545 234.405 330.733 234.405C335.852 234.405 339.874 230.06 339.874 224.094Z" fill="#F5F5EF"/>
<path d="M358.258 189.938V240.101H350.923V189.938H358.258Z" fill="#F5F5EF"/>
<path d="M386.838 229.666L392.675 233.556C390.791 236.342 386.252 241.142 378.407 241.142C368.679 241.142 361.414 233.625 361.414 224.025C361.414 213.846 368.741 206.908 377.566 206.908C386.452 206.908 390.799 213.977 392.219 217.797L393 219.742L370.108 229.219C371.86 232.653 374.585 234.405 378.407 234.405C382.237 234.405 384.893 232.522 386.838 229.666ZM368.873 223.508L384.175 217.156C383.334 215.019 380.801 213.529 377.821 213.529C373.999 213.529 368.679 216.902 368.873 223.508Z" fill="#F5F5EF"/>
<path d="M211.79 219.58V212.318H236.272C236.512 213.583 236.635 215.081 236.635 216.701C236.635 222.15 235.145 228.887 230.343 233.687C225.672 238.549 219.704 241.142 211.798 241.142C197.144 241.142 184.822 229.211 184.822 214.564C184.822 199.916 197.144 187.985 211.798 187.985C219.905 187.985 225.68 191.164 230.019 195.309L224.892 200.433C221.781 197.516 217.565 195.247 211.79 195.247C201.09 195.247 192.72 203.867 192.72 214.564C192.72 225.26 201.09 233.88 211.79 233.88C218.731 233.88 222.684 231.094 225.216 228.563C227.27 226.51 228.621 223.577 229.154 219.572L211.79 219.58Z" fill="#F5F5EF"/>
</g>
<g clip-path="url(#clip7_1264_182)">
<path d="M30.1408 289.307C30.1408 285.05 26.0944 283.985 22.8998 283.985V284.624C24.8166 284.624 26.3074 285.262 26.3074 286.752C26.3074 287.604 25.6684 288.881 23.7518 288.881C22.261 288.881 19.0664 288.03 16.7238 287.178C13.9551 286.114 11.3995 285.262 9.26976 285.262C5.01038 285.262 2.0288 288.455 2.0288 292.074C2.0288 295.267 4.37147 296.331 5.22335 296.757L5.43632 296.331C5.01038 295.906 4.37147 295.48 4.37147 294.203C4.37147 293.351 5.22335 291.861 7.35305 291.861C9.26976 291.861 11.8254 292.713 15.233 293.777C18.2145 294.628 21.409 295.267 23.1128 295.48V302.078L19.9183 304.846V305.059L23.1128 307.826V316.979C21.409 318.043 19.4924 318.256 17.7886 318.256C14.594 318.256 11.8254 317.405 9.48275 314.85L18.2145 310.593V295.906L7.56602 300.588C8.4179 297.821 10.7606 295.906 13.1032 294.628L12.8903 293.99C6.50117 295.693 0.750977 301.653 0.750977 308.89C0.750977 317.405 7.77899 323.79 15.6589 323.79C24.1777 323.79 29.7149 316.979 29.7149 309.954H29.289C28.0112 312.722 26.0944 315.276 23.7518 316.553V307.826L27.1592 305.059V304.846L23.7518 302.078V295.48C26.9463 295.48 30.1408 293.351 30.1408 289.307ZM11.6125 312.722L9.05678 313.999C7.56602 312.083 6.71414 309.529 6.71414 305.91C6.71414 304.42 6.71414 302.717 7.14008 301.44L11.6125 299.524V312.722ZM34.1873 317.617L31.4187 319.746L31.8446 320.172L33.1224 319.107L37.8078 323.365L44.1969 319.107L43.9839 318.682L42.2801 319.746L40.1505 317.617V303.143L41.8542 301.866L45.4747 304.846V317.83C45.4747 325.919 43.7709 327.196 40.1505 328.473V329.112C46.1136 329.325 51.6509 327.409 51.6509 316.979V302.93L53.5675 301.44L53.1417 301.014L51.4379 302.291L46.1136 297.821L40.1505 302.291V284.837H39.7245L32.2706 289.945V290.371C33.1224 290.797 34.4002 291.223 34.4002 293.564L34.1873 317.617ZM73.1608 315.276L67.8366 319.32L62.5123 315.063V312.509L72.5219 305.697V305.484L67.4106 297.821L56.3362 303.781V317.83L54.2065 319.533L54.6324 319.959L56.5491 318.469L63.7901 323.79L73.3738 316.127L73.1608 315.276ZM62.5123 311.657V301.227L62.9383 301.014L67.6236 308.464L62.5123 311.657ZM113.838 287.391C113.838 286.752 113.625 286.114 113.413 285.475H112.987C112.347 287.178 111.495 288.03 109.365 288.03C107.449 288.03 106.171 286.965 105.319 286.114L99.1431 293.138L99.569 293.564L101.699 291.648C102.977 292.713 104.041 293.564 107.023 293.777V311.444L94.4574 289.945C93.3929 288.242 91.9025 285.901 88.9207 285.901C85.5131 285.901 82.5315 288.881 82.9574 293.564H83.5964C83.8093 292.287 84.4482 290.797 85.939 290.797C87.0043 290.797 88.0688 291.861 88.7073 292.925V299.95C84.8742 299.95 82.3185 301.653 82.3185 304.846C82.3185 306.549 83.1704 309.103 85.7261 309.742V309.316C85.3001 308.89 85.0871 308.464 85.0871 307.826C85.0871 306.761 85.939 305.91 87.4294 305.91H88.4947V314.85C84.0223 314.85 80.4018 317.405 80.4018 321.662C80.4018 325.706 83.8093 327.622 87.6428 327.409V326.983C85.3001 326.77 84.2353 325.706 84.2353 324.216C84.2353 322.3 85.5131 321.449 87.2168 321.449C88.9207 321.449 90.4112 322.513 91.4765 323.79L97.6526 316.979L97.2266 316.553L95.7353 318.256C93.3929 316.127 92.115 315.489 89.3467 315.063V293.777L106.384 323.578H107.662V293.777C110.857 293.564 113.838 291.01 113.838 287.391ZM129.385 315.276L124.061 319.32L118.737 315.063V312.509L128.746 305.697V305.484L123.635 297.821L112.561 303.781V317.83L110.431 319.533L110.857 319.959L112.773 318.469L120.015 323.79L129.598 316.127L129.385 315.276ZM118.737 311.657V301.227L119.163 301.014L123.847 308.464L118.737 311.657ZM164.099 300.163L162.609 301.227L158.562 297.821L153.877 302.078L155.793 303.994V319.959L150.682 316.766V303.569L152.385 302.504L147.487 297.821L142.802 302.078L144.719 303.994V319.32L144.08 319.746L139.607 316.553V303.781C139.607 300.801 138.117 299.95 136.413 298.886C134.923 297.821 134.071 297.183 134.071 295.693C134.071 294.415 135.349 293.777 135.987 293.351V292.925C134.283 292.925 129.811 294.628 129.811 298.673C129.811 300.801 130.875 301.653 131.941 302.717C133.005 303.781 134.071 304.633 134.071 306.549V318.895L131.727 320.597L132.153 321.023L134.283 319.32L139.181 323.578L144.505 319.959L150.469 323.578L161.757 316.979V302.717L164.525 300.588L164.099 300.163ZM203.711 288.455L201.582 290.371L196.897 286.114L189.869 291.223V286.54H189.229L189.443 321.023C188.803 321.023 186.887 320.597 185.396 320.172L184.97 291.435C184.97 289.307 183.479 286.327 179.646 286.327C175.813 286.327 173.257 289.307 173.257 292.287H173.895C174.109 291.01 174.747 289.945 176.025 289.945C177.303 289.945 178.368 290.797 178.368 293.564V301.866C174.535 302.078 172.192 304.207 172.192 306.974C172.192 308.677 173.044 311.232 175.599 311.232V310.806C174.747 310.38 174.535 309.742 174.535 309.316C174.535 308.039 175.599 307.613 177.303 307.613H178.155V320.81C174.961 321.875 173.683 324.216 173.683 326.77C173.683 330.389 176.451 332.943 180.711 332.943C183.693 332.943 186.248 332.518 188.803 331.879C190.933 331.453 193.702 330.815 194.98 330.815C196.683 330.815 197.323 331.666 197.323 332.731C197.323 334.221 196.683 334.859 195.831 335.072V335.498C199.239 334.859 201.369 332.731 201.369 329.538C201.369 326.345 198.174 324.429 194.767 324.429C193.063 324.429 189.443 325.068 186.887 325.493C183.905 326.132 180.924 326.558 180.072 326.558C178.581 326.558 176.877 325.919 176.877 323.79C176.877 322.088 178.368 320.597 181.989 320.597C183.905 320.597 186.248 320.81 188.591 321.449C191.146 322.088 193.489 322.726 195.619 322.726C198.813 322.726 201.582 321.662 201.582 317.192V291.01L204.137 288.881L203.711 288.455ZM194.98 301.44C194.341 302.078 193.489 302.717 192.424 302.717C191.359 302.717 190.295 302.078 189.869 301.44V292.074L191.998 290.584L194.98 293.351V301.44ZM194.98 307.826C194.554 307.4 193.489 306.761 192.424 306.761C191.359 306.761 190.295 307.4 189.869 307.826V302.291C190.295 302.717 191.359 303.356 192.424 303.356C193.489 303.356 194.554 302.717 194.98 302.291V307.826ZM194.98 317.83C194.98 319.533 193.915 321.236 191.572 321.236H189.869V308.677C190.295 308.251 191.359 307.613 192.424 307.613C193.489 307.613 194.341 308.251 194.98 308.677V317.83ZM224.157 302.717L217.341 297.821L206.906 303.781V317.617L204.777 319.32L204.989 319.746L206.693 318.469L213.508 323.578L224.157 317.192V302.717ZM212.656 316.127V300.801L217.981 304.633V319.746L212.656 316.127ZM244.389 298.247H243.963C243.324 298.673 242.685 299.098 242.046 299.098C241.194 299.098 240.129 298.673 239.703 298.034H239.278L235.657 302.078L232.037 298.034L225.647 302.291L225.86 302.717L227.564 301.653L229.694 303.994V317.405L226.925 319.533L227.351 319.959L228.629 318.895L233.74 323.152L240.342 318.682L240.129 318.256L238.213 319.32L235.657 317.192V302.291C236.722 303.356 238 304.42 239.491 304.42C242.472 304.633 244.176 301.653 244.389 298.247ZM269.945 318.682L262.704 323.578L252.908 308.677L259.936 297.821H260.362C261.213 298.673 262.491 299.524 263.982 299.524C265.473 299.524 266.538 298.673 267.177 297.821H267.602C267.39 302.078 264.408 304.633 262.278 304.633C260.149 304.633 259.084 303.569 257.806 302.93L257.167 303.994L267.816 319.746L269.945 318.469V318.682ZM246.519 317.617L243.75 319.746L244.176 320.172L245.454 319.107L250.139 323.365L256.528 319.107L256.102 318.682L254.398 319.746L252.269 317.617V284.837H252.056L244.389 289.945V290.371C245.241 290.797 246.519 291.01 246.519 293.564V317.617ZM305.298 289.307C305.298 285.05 301.252 283.985 298.057 283.985V284.624C299.974 284.624 301.465 285.262 301.465 286.752C301.465 287.604 300.826 288.881 298.909 288.881C297.418 288.881 294.224 288.03 291.881 287.178C289.112 286.327 286.557 285.475 284.427 285.475C280.168 285.475 277.186 288.668 277.186 292.287C277.186 295.48 279.529 296.544 280.381 296.97L280.594 296.544C279.955 296.118 279.316 295.693 279.316 294.415C279.316 293.564 280.168 292.074 282.298 292.074C284.214 292.074 286.77 292.925 290.178 293.99C293.159 294.841 296.354 295.48 298.057 295.693V302.291L294.863 305.059V305.271L298.057 308.039V317.192C296.354 318.256 294.437 318.469 292.733 318.469C289.538 318.469 286.77 317.617 284.427 315.063L293.159 310.806V295.906L282.51 300.588C283.575 297.821 285.918 295.906 288.048 294.415L287.835 293.99C281.446 295.693 275.696 301.44 275.696 308.677C275.696 317.192 282.724 323.578 290.603 323.578C299.122 323.578 304.66 316.766 304.66 309.742H304.234C302.956 312.509 301.039 315.063 298.696 316.34V307.613L302.104 304.846V304.633L298.909 301.866V295.48C302.104 295.48 305.298 293.351 305.298 289.307ZM286.77 312.722L284.214 313.999C282.724 312.083 281.872 309.529 281.872 305.91C281.872 304.42 282.084 302.717 282.51 301.44L286.983 299.524L286.77 312.722ZM312.752 287.178H312.539L308.28 290.797V291.01L311.9 295.054H312.326L316.586 291.435V291.223L312.752 287.178ZM319.142 318.682L317.438 319.746L315.308 317.617V302.93L317.438 301.44L317.012 301.014L315.521 302.291L311.688 297.821L305.511 302.078L305.937 302.717L307.428 301.653L309.344 303.994V317.83L306.576 319.959L306.789 320.385L308.28 319.32L312.965 323.578L319.354 319.32L319.142 318.682ZM354.708 318.469L353.216 319.533L350.874 317.405V302.93L353.004 301.227L352.578 300.801L350.874 302.291L345.976 297.821L339.586 302.291L334.688 297.821L328.725 302.291L324.892 297.821L318.716 302.078L318.928 302.717L320.419 301.653L322.549 303.994V317.83L320.845 319.533L325.744 323.578L330.428 319.32L328.512 317.405V302.93L330.428 301.653L333.624 304.633V317.405L331.92 319.107L336.818 323.152L341.503 318.895L339.586 316.979V302.93L341.29 301.866L344.698 304.846V317.617L343.207 319.107L348.106 323.578L354.708 319.107V318.469ZM373.236 315.276L367.912 319.32L362.588 315.063V312.509L372.596 305.697V305.484L367.486 297.821L356.411 303.781V318.256L363.865 323.578L373.448 315.915L373.236 315.276ZM362.588 311.657V301.227L363.014 301.014L367.698 308.464L362.588 311.657ZM392.616 309.742L388.57 306.549C391.338 304.207 392.403 301.014 392.403 298.886V297.608H391.978C391.552 298.673 390.7 299.737 388.996 299.737C387.292 299.737 386.227 298.886 385.162 297.608L375.578 302.93V310.593L379.199 313.36C375.578 316.553 374.94 318.682 374.94 320.385C374.94 322.513 376.004 324.003 377.708 324.642L377.921 324.216C377.496 323.79 377.07 323.578 377.07 322.513C377.07 321.875 377.921 320.81 379.624 320.81C381.754 320.81 383.032 322.3 383.672 322.939L392.829 317.405V309.742H392.616ZM390.274 303.356C388.782 305.91 385.588 308.464 383.672 309.742L381.328 307.826V300.376C382.18 302.504 384.524 304.207 386.866 304.207C388.356 304.207 389.208 303.994 390.274 303.356ZM386.653 320.385C385.588 318.043 383.032 316.34 380.476 316.34C379.838 316.34 378.134 316.34 376.43 317.405C377.496 315.702 380.264 312.722 383.884 310.593L386.44 312.722L386.653 320.385Z" fill="#F5F5EF"/>
</g>
</g>
<defs>
<clipPath id="clip0_1264_182">
<rect width="394" height="336" fill="white"/>
</clipPath>
<clipPath id="clip1_1264_182">
<rect width="122" height="72" fill="white" transform="translate(15.0215)"/>
</clipPath>
<clipPath id="clip2_1264_182">
<rect width="150" height="50" fill="white" transform="translate(1.02148 191.15)"/>
</clipPath>
<clipPath id="clip3_1264_182">
<rect width="135" height="65" fill="white" transform="translate(8.52148 99.075)"/>
</clipPath>
<clipPath id="clip4_1264_182">
<rect width="210" height="50" fill="white" transform="translate(183 103.997)"/>
</clipPath>
<clipPath id="clip5_1264_182">
<rect width="210" height="47" fill="white" transform="translate(183 14.7239)"/>
</clipPath>
<clipPath id="clip6_1264_182">
<rect width="210" height="69" fill="white" transform="translate(183.943 187.537)"/>
</clipPath>
<clipPath id="clip7_1264_182">
<rect width="393" height="52" fill="white" transform="translate(0 283.612)"/>
</clipPath>
</defs>
</svg>
