<svg width="150" height="50" viewBox="0 0 150 50" fill="none" xmlns="http://www.w3.org/2000/svg">
<path d="M7.43907 35.6633C3.59189 35.6633 0.335938 38.8949 0.335938 42.7205C0.335938 46.5772 3.58891 49.8411 7.43907 49.8411C11.2541 49.8411 14.4778 46.5844 14.4778 42.7205C14.4778 38.8949 11.2541 35.6633 7.43907 35.6633" fill="#AAAAA9"/>
<path d="M108.627 25.8149C107.719 24.9611 106.684 24.2544 105.559 23.7205C104.399 23.1569 103.127 22.8659 101.838 22.8696C100.881 22.8599 99.9336 23.0609 99.0627 23.4582C98.214 23.8513 97.789 24.5278 97.789 25.4881C97.789 26.4023 98.2569 27.0567 99.1926 27.4517C100.128 27.846 101.641 28.2823 103.731 28.7609C104.987 29.0348 106.221 29.4074 107.419 29.8754C108.628 30.337 109.762 30.9762 110.783 31.772C111.78 32.5529 112.602 33.5339 113.199 34.6523C113.807 35.7876 114.112 37.1399 114.112 38.7097C114.112 40.7617 113.699 42.4964 112.873 43.9145C112.078 45.2978 110.971 46.4749 109.64 47.351C108.272 48.2413 106.759 48.8838 105.169 49.2495C103.545 49.6385 101.881 49.8362 100.211 49.8387C97.5565 49.8396 94.9199 49.4085 92.4036 48.5623C89.8581 47.7108 87.7363 46.4559 86.0383 44.7977L92.0448 38.4486C93.0478 39.5315 94.2417 40.4192 95.5665 41.0671C96.9451 41.7628 98.4682 42.1218 100.012 42.1146C100.908 42.1089 101.79 41.8963 102.591 41.4931C103.439 41.079 103.863 40.3476 103.863 39.3001C103.863 38.2968 103.341 37.554 102.297 37.0712C101.252 36.5884 99.6199 36.087 97.4004 35.5665C96.2454 35.298 95.1108 34.948 94.005 34.519C92.9031 34.101 91.8773 33.5038 90.969 32.7514C90.0623 31.9927 89.3185 31.0576 88.7823 30.0026C88.2161 28.9127 87.933 27.6034 87.9336 26.0749C87.9336 24.1113 88.3472 22.4417 89.1738 21.0673C89.9761 19.7185 91.069 18.5665 92.3726 17.6959C93.7018 16.8131 95.1695 16.1604 96.7144 15.7652C98.259 15.3565 99.8493 15.1476 101.447 15.1437C103.875 15.1426 106.289 15.529 108.596 16.2886C110.924 17.0529 112.893 18.1984 114.504 19.7258L108.627 25.8149H108.627ZM136.372 15.2799C133.156 15.2799 130.441 16.2229 128.394 18.0227V1.02392H118.306V48.8611H128.392V31C128.392 26.4938 131.311 24.8875 134.043 24.8875C138.291 24.8875 139.182 28.1771 139.182 30.936V48.8611H149.277V28.2512C149.277 20.615 143.971 15.2805 136.369 15.2805L136.372 15.2799ZM54.0498 20.7183C55.9648 18.8851 58.2455 17.4794 60.7417 16.594C63.2434 15.6866 65.8835 15.2226 68.5439 15.2226C71.2855 15.2226 73.6033 15.5602 75.4962 16.2366C77.3897 16.9119 78.9232 17.96 80.0991 19.3786C81.2739 20.7972 82.1339 22.5863 82.678 24.7465C83.2222 26.9061 83.4946 29.4702 83.4946 32.4377V48.7917H73.6039V45.3952C67.34 53.249 53.3685 50.3347 53.3685 39.4387C53.3685 37.4668 54.7995 29.5551 65.94 28.5434C68.1523 28.342 70.1227 28.4418 73.3775 28.4418V27.9177C73.3775 26.3043 72.8113 25.1152 71.6795 24.3503C70.5477 23.5854 69.1548 23.2042 67.5015 23.2054C65.9781 23.2054 64.4738 23.54 63.0941 24.1866C61.6798 24.8415 60.7864 25.4056 59.7851 26.3217L54.0498 20.7183V20.7183ZM73.7011 34.6606H69.7496C66.5252 34.6606 64.7665 36.0225 64.2455 36.586C63.7056 37.1507 63.4103 37.9066 63.4243 38.6888C63.4094 39.1907 63.5435 39.6849 63.8081 40.111C64.0553 40.4983 64.3889 40.8227 64.7825 41.0587C65.2023 41.3056 65.6624 41.4762 66.1414 41.5625C66.6266 41.6581 67.1189 41.7083 67.6135 41.7107C69.5827 41.7107 71.0894 41.1681 72.1336 40.0823C73.1772 38.9965 73.6993 37.5253 73.6987 35.6693V34.6606H73.7011V34.6606ZM39.7148 0.966553V17.9958C37.4923 16.1422 34.762 15.2046 31.5085 15.2046C22.4791 15.2046 15.668 22.5953 15.668 32.3941C15.668 42.1935 22.4773 49.8207 31.5085 49.8207C34.7823 49.8207 37.8344 48.7063 39.8858 46.6638V48.7917H49.8021V0.966553H39.7148ZM40.7411 35.6406C40.3745 36.6481 39.8298 37.5811 39.1331 38.3948C38.434 39.2055 37.58 39.8677 36.6215 40.3422C35.6399 40.8328 34.5242 41.0784 33.2744 41.0784C31.9787 41.0784 30.8391 40.8322 29.8552 40.3392C28.9023 39.8708 28.0578 39.2076 27.3758 38.3924C26.6974 37.5704 26.1856 36.6234 25.8691 35.6048C25.5396 34.576 25.3715 33.5021 25.3708 32.4216C25.3708 31.3495 25.5401 30.2841 25.8733 29.2652C26.1876 28.2612 26.7032 27.3322 27.3886 26.5352C28.0739 25.7382 28.9145 25.0901 29.8587 24.6306C30.8397 24.1388 31.9799 23.8926 33.278 23.892C34.5278 23.892 35.6441 24.1382 36.6275 24.6306C37.5858 25.1054 38.4397 25.7675 39.139 26.578C39.8356 27.3917 40.3802 28.3244 40.7471 29.3316C41.5061 31.3674 41.5061 33.6096 40.7471 35.6454L40.7411 35.6406V35.6406Z" fill="#AAAAA9"/>
</svg>
