<svg width="145" height="70" viewBox="0 0 145 70" fill="none" xmlns="http://www.w3.org/2000/svg">
<path d="M16.2171 5.99048V25.5165C16.2171 25.5165 23.0095 25.5165 26.6448 25.237C29.5035 24.73 30.0297 24.4505 30.5559 21.5547L31.6083 17.3135H34.7174L34.1912 26.5825L34.4671 36.079H31.3324L30.5559 32.3707C29.7795 29.7317 28.7271 29.1955 26.6448 28.942C24.0395 28.6625 16.2171 28.6625 16.2171 28.6625V45.0392C16.2171 48.1885 17.7957 49.534 21.4309 49.534H32.3848C35.7698 49.534 39.1515 49.2545 41.2595 44.2527L44.0926 37.9055H46.7236C46.4477 39.225 45.145 50.8535 44.8948 53.4697C44.8948 53.4697 34.9933 53.2162 30.8319 53.2162H12.0557L0.851562 53.4697V50.6L4.4868 49.7875C7.11778 49.2545 7.89424 48.468 7.89424 46.3587C7.89424 46.3587 8.17017 39.225 8.17017 27.3397C8.17017 15.4837 7.89424 8.34673 7.89424 8.34673C7.89424 5.98398 7.11778 5.45098 4.4868 4.91798L0.851562 4.13798V1.24223L11.8054 1.46973H32.6607C36.8221 1.46973 43.8392 0.709229 43.8392 0.709229C43.8392 0.709229 43.5889 5.17798 43.313 15.7405H40.4542L39.4018 12.0322C38.3751 7.28398 36.8189 4.92123 33.9377 4.92123H17.5454C16.2171 4.92448 16.2171 5.17798 16.2171 5.99048ZM58.4282 8.07373H61.563V19.1692L72.2665 18.6362L71.7403 23.664L61.3127 22.8515V42.4035C61.3127 47.9382 63.1415 50.0702 66.2763 50.0702C69.1094 50.0702 71.2142 48.4712 71.9906 47.1517L73.5435 49.0042C71.9906 52.6865 67.5789 54.539 63.3918 54.539C58.2037 54.539 53.9909 51.3897 53.9909 45.322V23.1277H47.7728V20.4887C52.9898 19.9557 56.8753 16.7805 58.4282 8.07373ZM80.8621 42.1207L82.9413 47.1485C83.7177 49.2545 85.5466 51.3897 89.708 51.3897C94.1454 51.3897 95.9742 49.0042 95.9742 46.1085C95.9742 37.119 78.5039 39.7612 78.5039 27.6225C78.5039 20.7682 83.968 17.567 91.0107 17.567C94.1454 17.567 98.833 18.1 101.188 19.166C100.662 21.805 100.386 25.2337 100.386 27.876L97.8031 28.1295L95.9742 22.8482C95.448 21.5547 93.3432 20.4855 90.7604 20.4855C87.6257 20.4855 84.4942 21.805 84.4942 25.2337C84.4942 33.4107 102.491 31.581 102.491 43.7197C102.491 50.6 96.5004 54.2822 89.1818 54.2822C83.7177 54.2822 78.228 52.1502 78.228 52.1502C78.7542 49.001 78.5039 45.5755 78.228 42.1207H80.8621V42.1207ZM101.191 67.461C101.968 64.5652 102.494 60.8862 103.02 57.4315L105.879 57.178L106.931 62.7127C107.182 64.0322 107.958 65.0982 110.04 65.0982C113.425 65.0982 117.863 62.9922 122.047 55.6017C120.192 51.107 114.728 36.6087 109.764 25.5132C108.462 22.5947 108.211 22.338 106.405 21.805L105.077 21.298V18.633L112.922 18.9125L122.547 18.3795V21.0217L120.192 21.5547C118.363 21.8082 117.609 22.8482 117.609 23.9175C117.609 24.197 117.609 24.4505 117.859 24.9835C118.36 26.5825 122.547 38.4417 125.682 46.362C128.265 40.8272 133.228 28.4122 134.005 26.303C134.281 25.237 134.531 24.9835 134.531 24.197C134.531 22.8515 133.754 22.065 131.948 21.558L130.093 21.0217V18.3827L137.412 18.6362L144.179 18.3827V21.0217L142.876 22.0617C140.271 23.1277 139.995 23.3812 138.965 25.5132L127.511 52.68C120.718 68.2702 113.676 69.5897 108.734 69.5897C105.603 69.593 103.248 68.7805 101.191 67.461Z" fill="#AAAAA9"/>
</svg>
