<svg width="228" height="56" viewBox="0 0 228 56" fill="none" xmlns="http://www.w3.org/2000/svg">
<path d="M95.0295 29.874C95.0295 25.3397 94.8637 21.5191 94.7394 18.2862H104.312L104.851 23.2824H105.016C106.425 21.0153 110.113 17.4466 115.915 17.4466C123.167 17.4466 128.637 22.3588 128.637 33.0649V54.5611H117.655V34.4924C117.655 29.874 116.039 26.5992 112.103 26.5992C109.036 26.5992 107.254 28.7824 106.55 30.8397C106.26 31.4695 106.094 32.645 106.094 33.6527V54.5191H95.1124V29.874H95.0295V29.874ZM156.401 33.6527C156.401 33.0229 156.318 32.2252 156.236 31.6794C155.614 28.5725 153.169 26.1374 149.812 26.1374C144.798 26.1374 142.188 30.7557 142.188 36.5076C142.188 42.6374 145.171 46.5 149.73 46.5C152.962 46.5 155.49 44.2328 156.07 41.042C156.236 40.2023 156.36 39.4046 156.36 38.3969L156.401 33.6527V33.6527ZM167.424 1.87022V43.687C167.424 47.7595 167.59 52.042 167.714 54.5191H157.852L157.313 49.145H157.147C154.91 53.2175 150.641 55.2748 146.041 55.2748C137.629 55.2748 130.875 47.9275 130.875 36.6756C130.792 24.416 138.292 17.3626 146.787 17.3626C151.18 17.3626 154.578 18.874 156.194 21.4351H156.36V1.87022H167.424V1.87022ZM193.075 32.3092C193.075 29.5801 191.874 24.9618 186.818 24.9618C182.177 24.9618 180.312 29.2023 180.022 32.3092H193.075ZM180.146 40.0343C180.519 44.6527 184.995 46.9198 190.175 46.9198C193.904 46.9198 196.971 46.374 199.954 45.4924L201.363 53.1336C197.799 54.5611 193.282 55.4007 188.558 55.4007C176.458 55.4007 169.579 48.2214 169.579 36.9275C169.579 27.7748 175.132 17.6145 187.481 17.6145C198.918 17.6145 203.311 26.7672 203.311 35.7519C203.311 37.6412 203.145 39.3626 202.938 40.2023H180.105L180.146 40.0343V40.0343ZM205.714 30.2099C205.714 24.8359 205.549 21.4351 205.424 18.2443H214.914L215.287 24.9618H215.577C217.359 19.6717 221.751 17.4466 225.149 17.4466C226.144 17.4466 226.641 17.4466 227.47 17.6145V28.2366C226.641 28.0687 225.771 27.9427 224.486 27.9427C220.467 27.9427 217.69 30.1259 216.944 33.6527C216.779 34.4084 216.779 35.2901 216.779 36.2137V54.645H205.797V30.2099H205.714ZM79.5726 18.3282H90.554V54.603H79.5726V18.3282ZM69.0884 17.0687C69.0884 13.0801 71.036 10.0992 76.879 10.0153C76.506 9.09159 76.3403 8.12594 76.3403 6.99236C76.3403 4.72518 77.1691 2.7519 78.4951 1.15648C77.8735 1.07251 77.252 1.07251 76.6304 1.07251C65.7318 1.07251 58.024 6.69846 58.024 16.6908V18.2023H53.3828V26.5572H58.024V54.4771H69.1298V26.5572H75.0557V18.2443H69.0884V17.0687Z" fill="#AAAAA9"/>
<path d="M23.7948 6.99243C10.8657 6.99243 0.505859 17.6985 0.505859 30.7558C0.505859 43.939 10.9072 54.5191 23.7948 54.5191C36.6825 54.5191 47.0838 43.813 47.0838 30.7558V6.99243H23.7948Z" fill="#AAAAA9"/>
<path d="M15.2997 31.3013C13.352 29.328 12.8962 26.3051 14.0565 23.954L15.2997 25.2135C15.4654 24.4578 15.9213 23.87 16.5014 23.3242C17.0401 22.7784 17.7032 22.3166 18.3662 22.1067L17.123 20.7632C19.4436 19.5456 22.4273 20.0074 24.3749 22.0227C26.9027 24.5838 26.9027 28.7403 24.3749 31.2593C21.8471 33.7784 17.7032 33.8204 15.2997 31.3013ZM25.8253 20.5113C22.3858 17.0265 16.9573 17.0265 13.6421 20.5113C10.2026 23.996 10.2026 29.58 13.6421 33.0227C16.7915 36.2135 21.8057 36.5074 25.2037 33.6525L27.7315 36.2975C27.3586 37.0532 27.4415 37.9349 28.1045 38.4807L32.87 43.309C33.6159 44.0647 34.7348 44.0647 35.4807 43.309L36.0194 42.7632C36.7653 42.0074 36.7653 40.8738 36.0194 40.1181L31.2124 35.2899C30.6737 34.7441 29.8035 34.5342 29.0576 34.912L26.5298 32.267C29.2648 28.7403 28.9747 23.6601 25.8253 20.5113V20.5113Z" fill="white"/>
<path d="M91.5901 6.99224C91.5901 10.6869 88.7308 13.5838 85.0841 13.5838C81.5203 13.5838 78.5781 10.5609 78.5781 6.99224C78.5781 3.42354 81.4375 0.400635 85.0841 0.400635C88.7308 0.400635 91.5901 3.38155 91.5901 6.99224V6.99224Z" fill="#AAAAA9"/>
</svg>
