<svg width="219" height="49" viewBox="0 0 219 49" fill="none" xmlns="http://www.w3.org/2000/svg">
<path d="M217.072 16.1758L216.445 23.5336H213.372C208.465 23.5336 205.915 27.3793 205.915 31.0649V47.6828H197.218V16.1758H205.455L205.643 20.1083C207.371 17.4116 210.395 16.1758 214.125 16.1758H217.072ZM156.78 47.6825H148.075V31.0265C148.075 27.5383 147.767 23.148 142.749 23.148C137.917 23.148 135.991 26.558 135.991 30.5287V47.6825H127.29V16.1755H135.358L135.542 20.2034C137.271 17.5067 140.491 15.4069 145.242 15.4069C154.012 15.4069 156.78 21.5288 156.78 27.8997V47.6825ZM123.495 40.3226L122.886 47.4916C120.799 48.0389 118.946 48.2353 116.704 48.2353C108.503 48.2353 106.124 44.5584 106.124 37.1682V7.29076H114.827V16.1762H123.488L122.886 23.533H114.827V36.5283C114.827 39.4939 115.659 41.0959 118.77 41.0959C120.123 41.0959 121.628 40.9367 123.495 40.3226V40.3226ZM103.266 16.1758L102.592 23.5336H100.227C95.3301 23.5336 92.8948 27.3745 92.8948 31.0649V47.6828H84.1905V16.1758H92.4316L92.6032 20.1083C94.3412 17.4116 97.3655 16.1758 101.1 16.1758H103.266ZM44.9134 44.192C39.01 47.2797 33.1134 49.0609 25.3248 48.8397C10.8857 48.4087 0.46875 39.6425 0.46875 24.8354C0.46875 10.0931 10.9862 0.673707 25.3317 0.452478C32.6034 0.34377 39.1105 2.14794 44.1966 6.53629L38.0699 12.5962C34.9226 9.97295 30.292 8.43962 24.7582 8.68468C15.73 9.09568 10.2899 15.5104 10.1699 24.33C10.0519 33.8857 16.045 40.4711 25.4136 40.7114C29.8219 40.8192 32.9798 40.2404 35.7126 39.0408V29.2733H25.9754L26.6327 21.2623H44.9134V44.192ZM193.331 34.9234H169.469C170.149 38.9494 173.386 41.3715 177.417 41.4812C181.335 41.5851 183.528 40.4275 186.394 37.5896L192.073 41.8235C188.037 46.6839 183.194 48.4528 177.677 48.4528C167.973 48.4528 160.703 41.8187 160.703 31.9282C160.703 22.0483 167.937 15.4066 177.314 15.4066C187.649 15.4066 193.331 21.5286 193.331 32.3955V34.9234ZM184.612 28.3361C184.345 24.3559 181.295 21.8394 177.095 21.9996C172.867 22.156 170.052 24.848 169.469 28.3361H184.612ZM78.7111 27.0509V47.6825H71.0376L70.8474 44.5757C68.493 47.4269 64.6709 48.453 60.7356 48.453C54.8098 48.453 49.2107 45.596 49.0937 38.942C48.9172 28.4832 61.1326 27.7403 68.8042 27.7403H70.3373V27.3265C70.3373 23.8679 67.9966 21.9998 63.5893 21.9998C60.4255 21.9998 57.3026 23.2404 54.9932 25.3574L49.9714 20.3692C54.5309 16.7552 59.2747 15.4068 64.3286 15.4068C74.3106 15.4068 78.7111 19.9172 78.7111 27.0509ZM70.3373 33.9424H69.127C65.0064 33.951 57.7688 34.1493 57.7961 38.3622C57.8352 44.2973 70.3373 42.4111 70.3373 35.2536V33.9424ZM210.283 44.0175C210.283 42.0121 211.831 40.5007 213.815 40.5007C215.776 40.5007 217.326 42.0121 217.326 44.0175C217.326 46.0581 215.776 47.5648 213.815 47.5648C211.831 47.5648 210.283 46.0581 210.283 44.0175ZM213.815 48.2695C216.178 48.2695 218.194 46.4749 218.194 44.0175C218.194 41.5849 216.178 39.7941 213.815 39.7941C211.431 39.7941 209.413 41.5849 209.413 44.0175C209.413 46.4749 211.431 48.2695 213.815 48.2695ZM212.898 44.357H213.77L215.086 46.4749H215.936L214.516 44.3226C215.25 44.2349 215.811 43.8497 215.811 42.9752C215.811 42.0121 215.226 41.5849 214.044 41.5849H212.143V46.4749H212.898V44.357ZM212.898 43.7266V42.2152H213.928C214.457 42.2152 215.019 42.3268 215.019 42.9323C215.019 43.6828 214.445 43.7266 213.805 43.7266H212.898Z" fill="#AAAAA9"/>
</svg>
