<svg width="211" height="69" viewBox="0 0 211 69" fill="none" xmlns="http://www.w3.org/2000/svg">
<path d="M90.3952 36.4958C90.3952 46.3509 82.6456 53.613 73.1351 53.613C63.6246 53.613 55.875 46.3509 55.875 36.4958C55.875 26.5713 63.6246 19.3787 73.1351 19.3787C82.6456 19.3787 90.3952 26.5713 90.3952 36.4958ZM82.8396 36.4958C82.8396 30.3374 78.3481 26.1237 73.1351 26.1237C67.9222 26.1237 63.4307 30.3374 63.4307 36.4958C63.4307 42.5926 67.9222 46.868 73.1351 46.868C78.3481 46.868 82.8396 42.5849 82.8396 36.4958Z" fill="#AAAAA9"/>
<path d="M127.63 36.4958C127.63 46.3509 119.88 53.613 110.369 53.613C100.859 53.613 93.1094 46.3509 93.1094 36.4958C93.1094 26.579 100.859 19.3787 110.369 19.3787C119.88 19.3787 127.63 26.5713 127.63 36.4958ZM120.074 36.4958C120.074 30.3374 115.582 26.1237 110.369 26.1237C105.157 26.1237 100.665 30.3374 100.665 36.4958C100.665 42.5926 105.157 46.868 110.369 46.868C115.582 46.868 120.074 42.5849 120.074 36.4958Z" fill="#AAAAA9"/>
<path d="M163.314 20.4128V51.1434C163.314 63.7845 155.821 68.9475 146.962 68.9475C138.623 68.9475 133.604 63.3987 131.711 58.8608L138.289 56.1366C139.46 58.9226 142.331 62.2102 146.954 62.2102C152.625 62.2102 156.139 58.7296 156.139 52.1776V49.7157H155.875C154.184 51.7917 150.926 53.6053 146.814 53.6053C138.212 53.6053 130.33 46.1503 130.33 36.5576C130.33 26.8954 138.212 19.3787 146.814 19.3787C150.918 19.3787 154.176 21.1922 155.875 23.2065H156.139V20.4205H163.314V20.4128ZM156.674 36.5576C156.674 30.5303 152.632 26.1237 147.489 26.1237C142.276 26.1237 137.909 30.5303 137.909 36.5576C137.909 42.5231 142.276 46.868 147.489 46.868C152.632 46.868 156.674 42.5231 156.674 36.5576Z" fill="#AAAAA9"/>
<path d="M175.145 2.40063V52.5637H167.775V2.40063H175.145Z" fill="#AAAAA9"/>
<path d="M203.861 42.1294L209.726 46.019C207.833 48.805 203.272 53.6052 195.39 53.6052C185.616 53.6052 178.316 46.0885 178.316 36.488C178.316 26.3088 185.678 19.3708 194.545 19.3708C203.473 19.3708 207.841 26.44 209.268 30.2601L210.052 32.2049L187.051 41.6818C188.812 45.1161 191.55 46.8679 195.39 46.8679C199.238 46.8679 201.907 44.9849 203.861 42.1294ZM185.81 35.971L201.185 29.6195C200.34 27.4818 197.795 25.9924 194.801 25.9924C190.961 25.9924 185.616 29.3649 185.81 35.971V35.971Z" fill="#AAAAA9"/>
<path d="M27.9792 32.043V24.7809H52.5778C52.8183 26.0466 52.9424 27.5438 52.9424 29.1644C52.9424 34.6129 51.4452 41.3502 46.6202 46.1504C41.927 51.0123 35.9305 53.6054 27.987 53.6054C13.2635 53.6054 0.882812 41.6743 0.882812 27.0267C0.882812 12.3791 13.2635 0.447998 27.987 0.447998C36.1322 0.447998 41.9347 3.62756 46.2944 7.7718L41.1435 12.8962C38.0173 9.97898 33.7817 7.71006 27.9792 7.71006C17.2276 7.71006 8.81859 16.3304 8.81859 27.0267C8.81859 37.723 17.2276 46.3433 27.9792 46.3433C34.9531 46.3433 38.9249 43.5573 41.4693 41.026C43.5327 38.9732 44.8903 36.0406 45.4255 32.0353L27.9792 32.043V32.043Z" fill="#AAAAA9"/>
</svg>
