<svg width="453" height="60" viewBox="0 0 453 60" fill="none" xmlns="http://www.w3.org/2000/svg">
<path d="M34.7421 6.57116C34.7421 1.65896 30.0779 0.430908 26.3956 0.430908V1.16774C28.605 1.16774 30.3234 1.90457 30.3234 3.62384C30.3234 4.60628 29.5869 6.07994 27.3776 6.07994C25.6592 6.07994 21.9769 5.0975 19.2766 4.11506C16.0853 2.88701 13.1395 1.90457 10.6846 1.90457C5.77493 1.90457 2.33814 5.58871 2.33814 9.76408C2.33814 13.4482 5.03847 14.6763 6.02041 15.1675L6.2659 14.6763C5.77493 14.1851 5.03847 13.6938 5.03847 12.2202C5.03847 11.2377 6.02041 9.51847 8.47526 9.51847C10.6846 9.51847 13.6304 10.5009 17.5582 11.729C20.995 12.7114 24.6772 13.4482 26.6411 13.6938V21.3077L22.9589 24.5007V24.7463L26.6411 27.9392V38.5004C24.6772 39.7285 22.4679 39.9741 20.504 39.9741C16.8217 39.9741 13.6304 38.9917 10.9301 36.0443L20.995 31.1321V14.1851L8.72074 19.5885C9.70268 16.3955 12.403 14.1851 15.1033 12.7114L14.8579 11.9746C7.49332 13.9395 0.865234 20.8165 0.865234 29.1673C0.865234 38.9917 8.96623 46.36 18.0492 46.36C27.8685 46.36 34.2511 38.5004 34.2511 30.3953H33.7602C32.2873 33.5882 30.0779 36.5356 27.3776 38.0092V27.9392L31.3053 24.7463V24.5007L27.3776 21.3077V13.6938C31.0598 13.6938 34.7421 11.2377 34.7421 6.57116ZM13.385 33.5882L10.4391 35.0619C8.72074 32.8514 7.7388 29.9041 7.7388 25.7287C7.7388 24.0095 7.7388 22.0446 8.22977 20.5709L13.385 18.3604V33.5882V33.5882ZM39.4063 39.2373L36.215 41.6934L36.706 42.1846L38.1789 40.9565L43.5796 45.8687L50.9441 40.9565L50.6986 40.4653L48.7347 41.6934L46.2799 39.2373V22.5358L48.2438 21.0621L52.417 24.5007V39.4829C52.417 48.8161 50.4531 50.2897 46.2799 51.7634V52.5002C53.1535 52.7458 59.5361 50.5353 59.5361 38.5004V22.2902L61.7454 20.5709L61.2545 20.0797L59.2906 21.5534L53.1535 16.3956L46.2799 21.5534V1.41335H45.7889L37.197 7.30798V7.7992C38.1789 8.29042 39.6518 8.78164 39.6518 11.4834L39.4063 39.2373V39.2373ZM84.33 36.5356L78.1929 41.2021L72.0558 36.29V33.3426L83.5936 25.4831V25.2375L77.7019 16.3956L64.9367 23.2726V39.4829L62.4819 41.4478L62.9728 41.939L65.1822 40.2197L73.5287 46.36L84.5755 37.518L84.33 36.5356V36.5356ZM72.0558 32.3602V20.3253L72.5468 20.0797L77.9474 28.676L72.0558 32.3602ZM131.218 4.36067C131.218 3.62384 130.972 2.88701 130.727 2.15018H130.236C129.499 4.11506 128.517 5.0975 126.062 5.0975C123.853 5.0975 122.38 3.86945 121.398 2.88701L114.279 10.9921L114.77 11.4834L117.225 9.27286C118.698 10.5009 119.925 11.4834 123.362 11.729V32.1146L108.878 7.30798C107.651 5.34311 105.933 2.6414 102.496 2.6414C98.5681 2.6414 95.1313 6.07994 95.6223 11.4834H96.3588C96.6042 10.0097 97.3407 8.29042 99.0591 8.29042C100.287 8.29042 101.514 9.51847 102.25 10.7465V18.8516C97.8317 18.8516 94.8858 20.8165 94.8858 24.5007C94.8858 26.4656 95.8678 29.4129 98.8136 30.1497V29.6585C98.3226 29.1673 98.0771 28.676 98.0771 27.9392C98.0771 26.7112 99.0591 25.7287 100.777 25.7287H102.005V36.0443C96.8497 36.0443 92.6765 38.9917 92.6765 43.9039C92.6765 48.5704 96.6042 50.7809 101.023 50.5353V50.0441C98.3226 49.7985 97.0952 48.5704 97.0952 46.8512C97.0952 44.6407 98.5681 43.6582 100.532 43.6582C102.496 43.6582 104.214 44.8863 105.442 46.36L112.561 38.5004L112.07 38.0092L110.351 39.9741C107.651 37.518 106.178 36.7812 102.987 36.29V11.729L122.626 46.1143H124.099V11.729C127.781 11.4834 131.218 8.53603 131.218 4.36067V4.36067ZM149.138 36.5356L143.001 41.2021L136.864 36.29V33.3426L148.401 25.4831V25.2375L142.51 16.3956L129.745 23.2726V39.4829L127.29 41.4478L127.781 41.939L129.99 40.2197L138.337 46.36L149.383 37.518L149.138 36.5356V36.5356ZM136.864 32.3602V20.3253L137.355 20.0797L142.755 28.676L136.864 32.3602V32.3602ZM189.152 19.0973L187.434 20.3253L182.769 16.3956L177.369 21.3077L179.578 23.5182V41.939L173.686 38.2548V23.027L175.65 21.799L170.004 16.3956L164.603 21.3077L166.813 23.5182V41.2021L166.076 41.6934L160.921 38.0092V23.2726C160.921 19.8341 159.203 18.8516 157.239 17.6236C155.521 16.3956 154.539 15.6587 154.539 13.9395C154.539 12.4658 156.012 11.729 156.748 11.2377V10.7465C154.784 10.7465 149.629 12.7114 149.629 17.378C149.629 19.8341 150.856 20.8165 152.084 22.0446C153.311 23.2726 154.539 24.2551 154.539 26.4656V40.7109L151.838 42.6758L152.329 43.167L154.784 41.2021L160.43 46.1143L166.567 41.939L173.441 46.1143L186.452 38.5004V22.0446L189.643 19.5885L189.152 19.0973V19.0973ZM234.812 5.58872L232.357 7.7992L226.957 2.88701L218.856 8.78164V3.37823H218.119L218.365 43.167C217.628 43.167 215.419 42.6758 213.7 42.1846L213.209 9.02725C213.209 6.57116 211.491 3.13262 207.072 3.13262C202.654 3.13262 199.708 6.57116 199.708 10.0097H200.444C200.69 8.53603 201.426 7.30798 202.899 7.30798C204.372 7.30798 205.599 8.29042 205.599 11.4834V21.0621C201.181 21.3077 198.48 23.7638 198.48 26.9568C198.48 28.9217 199.462 31.869 202.408 31.869V31.3778C201.426 30.8865 201.181 30.1497 201.181 29.6585C201.181 28.1848 202.408 27.6936 204.372 27.6936H205.354V42.9214C201.672 44.1495 200.199 46.8512 200.199 49.7985C200.199 53.9739 203.39 56.9212 208.3 56.9212C211.737 56.9212 214.682 56.43 217.628 55.6931C220.083 55.2019 223.274 54.4651 224.747 54.4651C226.711 54.4651 227.448 55.4475 227.448 56.6756C227.448 58.3948 226.711 59.1317 225.729 59.3773V59.8685C229.657 59.1317 232.112 56.6756 232.112 52.9914C232.112 49.3073 228.429 47.0968 224.502 47.0968C222.538 47.0968 218.365 47.8336 215.419 48.3248C211.982 49.0617 208.545 49.5529 207.563 49.5529C205.845 49.5529 203.881 48.8161 203.881 46.36C203.881 44.3951 205.599 42.6758 209.773 42.6758C211.982 42.6758 214.682 42.9214 217.383 43.6582C220.328 44.3951 223.029 45.1319 225.484 45.1319C229.166 45.1319 232.357 43.9039 232.357 38.7461V8.53603L235.303 6.07994L234.812 5.58872V5.58872ZM224.747 20.5709C224.011 21.3077 223.029 22.0446 221.801 22.0446C220.574 22.0446 219.347 21.3077 218.856 20.5709V9.76408L221.31 8.04481L224.747 11.2377V20.5709ZM224.747 27.9392C224.256 27.448 223.029 26.7112 221.801 26.7112C220.574 26.7112 219.347 27.448 218.856 27.9392V21.5534C219.347 22.0446 220.574 22.7814 221.801 22.7814C223.029 22.7814 224.256 22.0446 224.747 21.5534V27.9392ZM224.747 39.4829C224.747 41.4478 223.52 43.4126 220.819 43.4126H218.856V28.9217C219.347 28.4304 220.574 27.6936 221.801 27.6936C223.029 27.6936 224.011 28.4304 224.747 28.9217V39.4829V39.4829ZM258.379 22.0446L250.523 16.3956L238.494 23.2726V39.2373L236.04 41.2021L236.285 41.6934L238.249 40.2197L246.104 46.1143L258.379 38.7461V22.0446V22.0446ZM245.122 37.518V19.8341L251.26 24.2551V41.6934L245.122 37.518V37.518ZM281.7 16.8868H281.209C280.472 17.378 279.736 17.8692 278.999 17.8692C278.017 17.8692 276.79 17.378 276.299 16.6412H275.808L271.635 21.3077L267.462 16.6412L260.097 21.5534L260.342 22.0446L262.306 20.8165L264.761 23.5182V38.9917L261.57 41.4478L262.061 41.939L263.534 40.7109L269.425 45.6231L277.035 40.4653L276.79 39.9741L274.581 41.2021L271.635 38.7461V21.5534C272.862 22.7814 274.335 24.0095 276.054 24.0095C279.49 24.2551 281.454 20.8165 281.7 16.8868V16.8868ZM311.158 40.4653L302.811 46.1143L291.519 28.9217L299.62 16.3956H300.111C301.093 17.378 302.566 18.3604 304.284 18.3604C306.003 18.3604 307.23 17.378 307.967 16.3956H308.457C308.212 21.3077 304.775 24.2551 302.32 24.2551C299.866 24.2551 298.638 23.027 297.165 22.2902L296.429 23.5182L308.703 41.6934L311.158 40.2197V40.4653V40.4653ZM284.155 39.2373L280.963 41.6934L281.454 42.1846L282.927 40.9565L288.328 45.8687L295.692 40.9565L295.201 40.4653L293.237 41.6934L290.783 39.2373V1.41335H290.537L281.7 7.30798V7.7992C282.682 8.29042 284.155 8.53603 284.155 11.4834V39.2373V39.2373ZM351.908 6.57116C351.908 1.65896 347.244 0.430908 343.562 0.430908V1.16774C345.771 1.16774 347.49 1.90457 347.49 3.62384C347.49 4.60628 346.753 6.07994 344.544 6.07994C342.825 6.07994 339.143 5.0975 336.443 4.11506C333.251 3.13262 330.306 2.15018 327.851 2.15018C322.941 2.15018 319.504 5.83433 319.504 10.0097C319.504 13.6938 322.205 14.9219 323.187 15.4131L323.432 14.9219C322.696 14.4307 321.959 13.9395 321.959 12.4658C321.959 11.4834 322.941 9.76408 325.396 9.76408C327.605 9.76408 330.551 10.7465 334.479 11.9746C337.916 12.957 341.598 13.6938 343.562 13.9395V21.5534L339.88 24.7463V24.9919L343.562 28.1848V38.7461C341.598 39.9741 339.389 40.2197 337.425 40.2197C333.742 40.2197 330.551 39.2373 327.851 36.29L337.916 31.3778V14.1851L325.641 19.5885C326.869 16.3955 329.569 14.1851 332.024 12.4658L331.779 11.9746C324.414 13.9395 317.786 20.5709 317.786 28.9217C317.786 38.7461 325.887 46.1143 334.97 46.1143C344.789 46.1143 351.172 38.2548 351.172 30.1497H350.681C349.208 33.3426 346.999 36.29 344.298 37.7636V27.6936L348.226 24.5007V24.2551L344.544 21.0621V13.6938C348.226 13.6938 351.908 11.2377 351.908 6.57116V6.57116ZM330.551 33.5882L327.605 35.0619C325.887 32.8514 324.905 29.9041 324.905 25.7287C324.905 24.0095 325.15 22.0446 325.641 20.5709L330.797 18.3604L330.551 33.5882V33.5882ZM360.5 4.11506H360.255L355.345 8.29042V8.53603L359.518 13.2026H360.009L364.919 9.02725V8.78164L360.5 4.11506V4.11506ZM367.865 40.4653L365.901 41.6934L363.446 39.2373V22.2902L365.901 20.5709L365.41 20.0797L363.692 21.5534L359.273 16.3956L352.154 21.3077L352.645 22.0446L354.363 20.8165L356.572 23.5182V39.4829L353.381 41.939L353.627 42.4302L355.345 41.2021L360.746 46.1143L368.11 41.2021L367.865 40.4653V40.4653ZM408.861 40.2197L407.142 41.4478L404.442 38.9917V22.2902L406.897 20.3253L406.406 19.8341L404.442 21.5534L398.796 16.3956L391.431 21.5534L385.785 16.3956L378.912 21.5534L374.493 16.3956L367.374 21.3077L367.619 22.0446L369.338 20.8165L371.793 23.5182V39.4829L369.829 41.4478L375.475 46.1143L380.875 41.2021L378.666 38.9917V22.2902L380.875 20.8165L384.558 24.2551V38.9917L382.594 40.9565L388.24 45.6231L393.641 40.7109L391.431 38.5004V22.2902L393.395 21.0621L397.323 24.5007V39.2373L395.605 40.9565L401.251 46.1143L408.861 40.9565V40.2197V40.2197ZM430.218 36.5356L424.081 41.2021L417.944 36.29V33.3426L429.481 25.4831V25.2375L423.59 16.3956L410.825 23.2726V39.9741L419.417 46.1143L430.463 37.2724L430.218 36.5356V36.5356ZM417.944 32.3602V20.3253L418.435 20.0797L423.835 28.676L417.944 32.3602V32.3602ZM452.557 30.1497L447.893 26.4656C451.084 23.7638 452.311 20.0797 452.311 17.6236V16.1499H451.821C451.33 17.378 450.348 18.606 448.384 18.606C446.42 18.606 445.192 17.6236 443.965 16.1499L432.918 22.2902V31.1321L437.091 34.3251C432.918 38.0092 432.182 40.4653 432.182 42.4302C432.182 44.8863 433.409 46.6056 435.373 47.3424L435.619 46.8512C435.128 46.36 434.637 46.1143 434.637 44.8863C434.637 44.1495 435.619 42.9214 437.582 42.9214C440.037 42.9214 441.51 44.6407 442.247 45.3775L452.802 38.9917V30.1497H452.557V30.1497ZM449.857 22.7814C448.138 25.7287 444.456 28.676 442.247 30.1497L439.546 27.9392V19.3429C440.528 21.799 443.229 23.7638 445.929 23.7638C447.647 23.7638 448.629 23.5182 449.857 22.7814V22.7814ZM445.683 42.4302C444.456 39.7285 441.51 37.7636 438.564 37.7636C437.828 37.7636 435.864 37.7636 433.9 38.9917C435.128 37.0268 438.319 33.5882 442.492 31.1321L445.438 33.5882L445.683 42.4302V42.4302Z" fill="#AAAAA9"/>
</svg>
